<svg xmlns="http://www.w3.org/2000/svg" width="106.276" height="104.967" viewBox="0 0 106.276 104.967">
  <path id="accueil" d="M983.546,1082.558H938.328l0-21.5q-7.885,0-15.769,0,0,4.495,0,8.99v12.469H877.3v-15.3c0-15.024,0-30.56-.012-45.838a8.032,8.032,0,0,1,3.152-6.541c12.316-9.662,24.831-19.5,36.935-29.006l8.487-6.669a7.421,7.421,0,0,1,9.147.012l2.1,1.644q2.75,2.153,5.489,4.3l8.137,6.4c9.57,7.523,19.466,15.3,29.213,22.928a9.009,9.009,0,0,1,3.616,7.437c-.029,14.587-.026,29.423-.023,43.769Zm-32.277-12.941H970.6v-3.963c0-13.79-.006-28.031.02-42.076-9.319-7.294-18.749-14.707-27.883-21.887L934.6,995.3q-2.081-1.634-4.168-3.268l-5.063,3.979c-11.515,9.048-23.4,18.389-35.139,27.6.011,14.56.011,29.318.011,43.612v2.361h19.368q0-5.347.005-10.7c.007-6.535,4.229-10.759,10.754-10.763q10.048-.006,20.1,0c6.559,0,10.8,4.26,10.8,10.847Z" transform="translate(-877.291 -977.591)"/>
</svg>
