<svg xmlns="http://www.w3.org/2000/svg" width="117" height="118.001" viewBox="0 0 117 118.001">
    <path
        d="M6028,117a57.21,57.21,0,0,1-22.576-4.6,57.833,57.833,0,0,1-9.852-5.394,58.73,58.73,0,0,1,0-97.019,57.834,57.834,0,0,1,9.852-5.394,57.733,57.733,0,0,1,45.153,0,57.85,57.85,0,0,1,9.852,5.394,58.729,58.729,0,0,1,0,97.019,57.849,57.849,0,0,1-9.852,5.394A57.212,57.212,0,0,1,6028,117Zm-33.106-91.015a7.069,7.069,0,0,0-7.073,7.073V86.952a7.068,7.068,0,0,0,7.073,7.073h66.214a7.067,7.067,0,0,0,7.073-7.073V33.059a7.068,7.068,0,0,0-7.073-7.073h-8.616v2.607a4.886,4.886,0,0,1-.066.707v.006h8.683c.049,0,.1,0,.145,0a3.76,3.76,0,0,1,3.608,3.75V86.952a3.747,3.747,0,0,1-3.753,3.753h-66.214a3.746,3.746,0,0,1-3.752-3.753V33.059a3.76,3.76,0,0,1,3.607-3.75l.145,0h8.684l0-.018a5.511,5.511,0,0,1-.062-.637v-.006h0a.024.024,0,0,1,0-.006V25.985Zm47.088,37.789a.982.982,0,0,0-.98.981V78.966a.982.982,0,0,0,.98.981h14.211a.919.919,0,0,0,.174-.015.979.979,0,0,0,.807-.964V64.755a.982.982,0,0,0-.98-.981Zm-21.353,0a.981.981,0,0,0-.979.981V78.967a.979.979,0,0,0,.805.964.927.927,0,0,0,.174.015h14.229a.98.98,0,0,0,.979-.979V64.755a.981.981,0,0,0-.268-.674l-.012-.012,0,0,0,0,0-.006-.008-.007-.005-.005a.975.975,0,0,0-.623-.267c-.017,0-.034,0-.05,0Zm-20.819,0a.982.982,0,0,0-.981.981V78.967a.979.979,0,0,0,.807.964.928.928,0,0,0,.174.015h14.212a.913.913,0,0,0,.173-.015.979.979,0,0,0,.806-.964V64.755a.981.981,0,0,0-.979-.981Zm42.818-23.71A1.629,1.629,0,0,0,6041,41.693V54.61a1.637,1.637,0,0,0,1.626,1.643h12.919a1.626,1.626,0,0,0,1.626-1.6V41.693a1.629,1.629,0,0,0-1.626-1.628Zm-21.351,0a1.629,1.629,0,0,0-1.627,1.628V54.61a1.637,1.637,0,0,0,1.627,1.643h12.934a1.637,1.637,0,0,0,1.627-1.643V41.693a1.629,1.629,0,0,0-1.627-1.628Zm-20.82,0a1.63,1.63,0,0,0-1.628,1.628V54.61a1.638,1.638,0,0,0,1.628,1.643h12.917A1.637,1.637,0,0,0,6015,54.61V41.693a1.629,1.629,0,0,0-1.626-1.628Zm43.55-21.634a1.829,1.829,0,0,0-1.827,1.827v8.4c0,.006,0,.012,0,.018v.03a.083.083,0,0,0,0,.011v.033a.1.1,0,0,0,0,.012v.007a.158.158,0,0,0,0,.027v.015l0,.015,0,.017a.014.014,0,0,1,0,.008.271.271,0,0,0,.006.034v.008c0,.005,0,.011,0,.016a.18.18,0,0,0,0,.019l0,.006a.286.286,0,0,0,.007.038,1.413,1.413,0,0,0,.1.284l.028.053a1.78,1.78,0,0,0,1.66,1.1h5a1.78,1.78,0,0,0,1.66-1.1l.009-.018.008-.015.011-.022c.016-.035.026-.059.035-.081l0,0a.133.133,0,0,0,.007-.02l0-.008a1.545,1.545,0,0,0,.092-.544V20.258A1.828,1.828,0,0,0,6049,18.431Zm-37.009,0a1.829,1.829,0,0,0-1.827,1.827v8.335a1.508,1.508,0,0,0,.165.713A1.784,1.784,0,0,0,6007,30.4h5a1.781,1.781,0,0,0,1.66-1.1,1.512,1.512,0,0,0,.167-.713V20.258A1.829,1.829,0,0,0,6012,18.431Zm8.485,7.554v2.607a4.866,4.866,0,0,1-.067.713h25.17c0-.009,0-.018,0-.028v-.01c0-.014,0-.029-.006-.043a4.539,4.539,0,0,1-.055-.632V25.985Z"
        transform="translate(-5969.5 0.5)" fill="#176de2" />
    <path
        d="M6028,117.5a57.708,57.708,0,0,1-22.772-4.637,58.349,58.349,0,0,1-9.937-5.44,59.231,59.231,0,0,1,0-97.845,58.351,58.351,0,0,1,9.938-5.44,58.233,58.233,0,0,1,45.545,0,58.364,58.364,0,0,1,9.938,5.44,59.229,59.229,0,0,1,0,97.845,58.371,58.371,0,0,1-9.937,5.44A57.708,57.708,0,0,1,6028,117.5Zm0-117a56.712,56.712,0,0,0-22.38,4.557,57.322,57.322,0,0,0-9.767,5.347,58.229,58.229,0,0,0,0,96.192,57.32,57.32,0,0,0,9.767,5.347,57.233,57.233,0,0,0,44.76,0,57.341,57.341,0,0,0,9.767-5.347,58.228,58.228,0,0,0,0-96.192,57.334,57.334,0,0,0-9.767-5.347A56.713,56.713,0,0,0,6028,.5Zm33.107,94.026h-66.214a7.567,7.567,0,0,1-7.573-7.573V33.059a7.568,7.568,0,0,1,7.573-7.573h9.118v2.507l.053-.014-.051.685a5.311,5.311,0,0,0,.057.557l.081.586h-9.257l-.129,0a3.26,3.26,0,0,0-3.123,3.25V86.952a3.239,3.239,0,0,0,2.715,3.209,3.281,3.281,0,0,0,.537.044h66.214a3.247,3.247,0,0,0,3.253-3.253V33.059a3.26,3.26,0,0,0-3.127-3.25l-.126,0h-9.266l.09-.584a4.4,4.4,0,0,0,.06-.629V25.485h9.116a7.567,7.567,0,0,1,7.573,7.573V86.952a7.567,7.567,0,0,1-7.573,7.573Zm-66.214-68.04a6.569,6.569,0,0,0-6.573,6.573V86.952a6.568,6.568,0,0,0,6.573,6.573h66.214a6.567,6.567,0,0,0,6.573-6.573V33.059a6.568,6.568,0,0,0-6.573-6.573h-8.116v2.107c0,.073,0,.144-.007.213h8.123c.054,0,.108,0,.161,0a4.26,4.26,0,0,1,4.092,4.249V86.952a4.247,4.247,0,0,1-4.253,4.253h-66.214a4.247,4.247,0,0,1-4.252-4.253V33.059a4.26,4.26,0,0,1,4.088-4.249c.06,0,.111,0,.164,0h8.125c0-.039,0-.079-.005-.119,0-.016,0-.032,0-.048V26.485Zm61.3,53.961h-14.211a1.482,1.482,0,0,1-1.48-1.481V64.755a1.482,1.482,0,0,1,1.48-1.481h14.211a1.482,1.482,0,0,1,1.48,1.481V78.967a1.478,1.478,0,0,1-1.215,1.455A1.416,1.416,0,0,1,6056.192,80.446Zm-14.211-16.172a.481.481,0,0,0-.48.481V78.966a.481.481,0,0,0,.48.481h14.211a.43.43,0,0,0,.08-.006h.005a.479.479,0,0,0,.4-.472V64.755a.481.481,0,0,0-.48-.481Zm-7.124,16.172h-14.229a1.421,1.421,0,0,1-.267-.024,1.477,1.477,0,0,1-1.212-1.455V64.755a1.482,1.482,0,0,1,1.479-1.481h14.229c.02,0,.05,0,.084,0a1.476,1.476,0,0,1,.917.388l.083.059.023.049a1.48,1.48,0,0,1,.372.981V78.967A1.481,1.481,0,0,1,6034.857,80.446Zm-14.229-16.172a.48.48,0,0,0-.479.481V78.967a.479.479,0,0,0,.394.472.442.442,0,0,0,.085.007h14.229a.48.48,0,0,0,.479-.479V64.755a.482.482,0,0,0-.127-.326l-.007-.007-.018-.018a.474.474,0,0,0-.3-.128h-14.254Zm-6.607,16.172h-14.212a1.423,1.423,0,0,1-.268-.024,1.477,1.477,0,0,1-1.213-1.455V64.755a1.483,1.483,0,0,1,1.481-1.481h14.212a1.482,1.482,0,0,1,1.479,1.481V78.967a1.478,1.478,0,0,1-1.214,1.455A1.414,1.414,0,0,1,6014.021,80.446Zm-14.212-16.172a.481.481,0,0,0-.481.481V78.967a.479.479,0,0,0,.4.472.45.45,0,0,0,.086.007h14.212a.416.416,0,0,0,.078-.006h.006a.479.479,0,0,0,.4-.472V64.755a.48.48,0,0,0-.479-.481Zm55.737-7.521h-12.919a2.138,2.138,0,0,1-2.126-2.143V41.693a2.13,2.13,0,0,1,2.126-2.128h12.919a2.13,2.13,0,0,1,2.126,2.128V54.666A2.123,2.123,0,0,1,6055.546,56.754Zm-12.919-16.189a1.129,1.129,0,0,0-1.126,1.128V54.61a1.136,1.136,0,0,0,1.126,1.143h12.919a1.128,1.128,0,0,0,1.126-1.107V41.693a1.129,1.129,0,0,0-1.126-1.128Zm-8.417,16.189h-12.934a2.138,2.138,0,0,1-2.127-2.143V41.693a2.13,2.13,0,0,1,2.127-2.128h12.934a2.13,2.13,0,0,1,2.127,2.128V54.61A2.138,2.138,0,0,1,6034.209,56.754Zm-12.934-16.189a1.129,1.129,0,0,0-1.127,1.128V54.61a1.136,1.136,0,0,0,1.127,1.143h12.934a1.136,1.136,0,0,0,1.127-1.143V41.693a1.129,1.129,0,0,0-1.127-1.128Zm-7.9,16.189h-12.917a2.138,2.138,0,0,1-2.128-2.143V41.693a2.131,2.131,0,0,1,2.128-2.128h12.917a2.13,2.13,0,0,1,2.126,2.128V54.61A2.138,2.138,0,0,1,6013.373,56.754Zm-12.917-16.189a1.13,1.13,0,0,0-1.128,1.128V54.61a1.137,1.137,0,0,0,1.128,1.143h12.917a1.136,1.136,0,0,0,1.126-1.143V41.693a1.129,1.129,0,0,0-1.126-1.128ZM6049,30.9h-5a2.278,2.278,0,0,1-2.113-1.383l-.02-.038-.007-.015a1.913,1.913,0,0,1-.132-.385c0-.009-.006-.026-.01-.048a.3.3,0,0,1-.006-.03l-.013-.048V28.93l-.012-.1a.113.113,0,0,1,0-.013h0c0-.011,0-.025,0-.042l-.007-.145V20.258a2.329,2.329,0,0,1,2.327-2.327h5a2.329,2.329,0,0,1,2.325,2.327v8.335a2.049,2.049,0,0,1-.12.71c-.006.018-.012.035-.019.052s-.026.064-.044.1l-.015.031-.015.03A2.279,2.279,0,0,1,6049,30.9Zm-6.237-1.871.021.039.012.022.009.023a1.283,1.283,0,0,0,1.2.787h5a1.283,1.283,0,0,0,1.2-.787l.037-.075.021-.048.011-.032a1.044,1.044,0,0,0,.06-.368V20.258A1.327,1.327,0,0,0,6049,18.931h-5a1.328,1.328,0,0,0-1.327,1.327v8.381c0,.006,0,.012,0,.018l.008.062v.04a.1.1,0,0,1,0,.012l.013.054,0,.035A.959.959,0,0,0,6042.767,29.032ZM6012,30.9h-5a2.283,2.283,0,0,1-2.114-1.383,2.018,2.018,0,0,1-.212-.927V20.258A2.329,2.329,0,0,1,6007,17.931h5a2.329,2.329,0,0,1,2.327,2.327v8.335a2.019,2.019,0,0,1-.214.927A2.279,2.279,0,0,1,6012,30.9Zm-5-11.972a1.328,1.328,0,0,0-1.327,1.327v8.335a1.01,1.01,0,0,0,.1.476l.022.047a1.286,1.286,0,0,0,1.2.787h5a1.283,1.283,0,0,0,1.2-.787l.01-.024.012-.023a1.015,1.015,0,0,0,.107-.477V20.258A1.328,1.328,0,0,0,6012,18.931Zm34.176,10.875h-26.336l.083-.572a4.512,4.512,0,0,0,.062-.641V25.485h26.037v3.107a4.09,4.09,0,0,0,.05.563l0,.019s0,.006,0,.009l0,.033s0,.007,0,.01v0Zm-25.2-1h24.05c0-.07-.007-.141-.007-.213V26.485h-24.037v2.107C6015.982,28.665,6015.98,28.736,6015.976,28.806Z"
        transform="translate(-5969.5 0.5)" fill="rgba(0,0,0,0)" />
</svg>