<svg id="couronne" xmlns="http://www.w3.org/2000/svg" width="344.21" height="283.579" viewBox="0 0 344.21 283.579">
  <path id="Tracé_69" data-name="Tracé 69" d="M827.011-289.733A29.439,29.439,0,0,0,856.479-260.3h216.284a29.408,29.408,0,0,0,29.433-29.432v-21.222H827.011Z" transform="translate(-792.499 543.88)"/>
  <path id="Tracé_70" data-name="Tracé 70" d="M1137.845-312.694a23.96,23.96,0,0,0-23.959,23.959A23.832,23.832,0,0,0,1117.7-275.8l-67.773,40.427L999.2-328.759a23.948,23.948,0,0,0,14.031-21.786A23.961,23.961,0,0,0,989.274-374.5a23.958,23.958,0,0,0-23.959,23.959,23.966,23.966,0,0,0,14.709,22.1l-50.551,93.067L861.7-275.8a23.8,23.8,0,0,0,3.815-12.935,23.961,23.961,0,0,0-23.959-23.959,23.96,23.96,0,0,0-23.961,23.959,23.96,23.96,0,0,0,23.961,23.959c.674,0,1.333-.048,1.993-.1l8.559,98.313h275.186l8.555-98.312c.659.055,1.324.1,2,.1a23.961,23.961,0,0,0,23.96-23.959A23.961,23.961,0,0,0,1137.845-312.694Z" transform="translate(-817.595 374.504)"/>
</svg>
