<svg xmlns="http://www.w3.org/2000/svg" width="275.891" height="61.7" viewBox="0 0 275.891 61.7">
  <g id="curlied" transform="translate(0 0)">
    <path id="Tracé_15" data-name="Tracé 15" d="M411.59,1504.962a26.821,26.821,0,0,1,10.5-10.42,31.619,31.619,0,0,1,15.65-3.759,40.621,40.621,0,0,1,6.906.613,28.951,28.951,0,0,1,6.579,1.921,15.617,15.617,0,0,1,4.9,3.187,6.138,6.138,0,0,1,1.879,4.495,8.447,8.447,0,0,1-1.511,4.617,13.036,13.036,0,0,1-3.719,3.8,18.435,18.435,0,0,0-6.415-4.494,20.168,20.168,0,0,0-8.05-1.635,16.279,16.279,0,0,0-8.417,2.166,15,15,0,0,0-5.721,6.006,19.051,19.051,0,0,0-2.043,9.071q0,7.683,4.617,12.136t12.544,4.454a26.183,26.183,0,0,0,7.151-.98,19.818,19.818,0,0,0,5.761-2.534l6.293,10.543a23.962,23.962,0,0,1-5.557,2.942,38.755,38.755,0,0,1-7.192,2,43.653,43.653,0,0,1-7.764.694,33.071,33.071,0,0,1-15.854-3.636,26.054,26.054,0,0,1-10.542-10.215,30.507,30.507,0,0,1-3.759-15.405A31.137,31.137,0,0,1,411.59,1504.962Z" transform="translate(-407.831 -1488.086)"/>
    <path id="Tracé_16" data-name="Tracé 16" d="M569.16,1550.057q0,8.419-5.557,13.281T548.32,1568.2q-9.644,0-15.241-4.862t-5.6-13.281v-18.877a5.27,5.27,0,0,1,1.8-4.332,7.8,7.8,0,0,1,5.067-1.471,16.688,16.688,0,0,1,3.269.327,16.46,16.46,0,0,1,3.023.9v21q0,8.5,7.682,8.5t7.682-8.5v-16.426a5.27,5.27,0,0,1,1.8-4.332,7.794,7.794,0,0,1,5.066-1.471,16.687,16.687,0,0,1,3.269.327,16.484,16.484,0,0,1,3.024.9Z" transform="translate(-472.646 -1506.826)"/>
    <path id="Tracé_17" data-name="Tracé 17" d="M638.039,1539.552q0-7.925,4.781-12.3t13.362-4.373q6.047,0,9.6,2t3.555,5.189a7.679,7.679,0,0,1-.9,3.432,10.228,10.228,0,0,1-2.125,2.942,15.294,15.294,0,0,0-3.677-1.308,17.877,17.877,0,0,0-4-.49q-7.438,0-7.437,7.763V1565.7H638.039Z" transform="translate(-532.536 -1505.473)"/>
    <path id="Tracé_18" data-name="Tracé 18" d="M729.3,1545.128H716.141V1490.7a5.267,5.267,0,0,1,1.8-4.331,7.8,7.8,0,0,1,5.066-1.471,16.725,16.725,0,0,1,3.269.327,16.538,16.538,0,0,1,3.024.9Z" transform="translate(-574.845 -1484.898)"/>
    <path id="Tracé_19" data-name="Tracé 19" d="M765.973,1497.443a7.664,7.664,0,0,1,0-10.42,6.84,6.84,0,0,1,5.148-2.125,6.941,6.941,0,0,1,5.23,2.125,7.665,7.665,0,0,1,0,10.42,6.871,6.871,0,0,1-5.23,2.165A6.773,6.773,0,0,1,765.973,1497.443Zm11.767,47.685H764.584v-35.876a5.27,5.27,0,0,1,1.8-4.331,7.8,7.8,0,0,1,5.067-1.471,16.65,16.65,0,0,1,3.269.327,16.429,16.429,0,0,1,3.023.9Z" transform="translate(-600.733 -1484.898)"/>
    <path id="Tracé_20" data-name="Tracé 20" d="M832.809,1566.847a23.047,23.047,0,0,1-11.482-2.778,19.831,19.831,0,0,1-7.722-7.723,23.03,23.03,0,0,1-2.779-11.481,22.106,22.106,0,0,1,2.9-11.4,20.773,20.773,0,0,1,7.968-7.764,23.3,23.3,0,0,1,11.523-2.82,23.621,23.621,0,0,1,9.643,1.88,16.535,16.535,0,0,1,6.7,5.149,12.071,12.071,0,0,1,2.452,7.436q0,6.786-5.353,9.889t-17.284,3.1q-1.553,0-2.615-.041t-1.962-.123a5.956,5.956,0,0,0,3.433,4.086,15.825,15.825,0,0,0,7.436,1.553,22.338,22.338,0,0,0,3.759-.368,30.45,30.45,0,0,0,4.045-.98,12.84,12.84,0,0,0,2.82-1.186l4.577,9.153a21.722,21.722,0,0,1-4.944,2.248,42.753,42.753,0,0,1-6.5,1.593A40.373,40.373,0,0,1,832.809,1566.847Zm.327-33.833a8.756,8.756,0,0,0-6.334,2.493,8.439,8.439,0,0,0-2.574,6.333,10.726,10.726,0,0,0,1.349.082h1.266q6.7,0,9.6-1.185t2.9-3.473a3.585,3.585,0,0,0-1.716-3.065A7.764,7.764,0,0,0,833.136,1533.014Z" transform="translate(-626.136 -1505.473)"/>
    <path id="Tracé_21" data-name="Tracé 21" d="M956.314,1522.817a27.088,27.088,0,0,1-2.738,12.626,18.934,18.934,0,0,1-7.764,8.049,24.211,24.211,0,0,1-11.89,2.778,24.8,24.8,0,0,1-12.1-2.819,19.979,19.979,0,0,1-7.968-7.8,22.67,22.67,0,0,1-2.82-11.36,23.261,23.261,0,0,1,2.7-11.319,20.707,20.707,0,0,1,7.273-7.8,19.8,19.8,0,0,1,17-1.675,13.893,13.893,0,0,1,5.148,3.31v-20.676a16.312,16.312,0,0,1,3.065-.9,16.933,16.933,0,0,1,3.228-.327,7.8,7.8,0,0,1,5.066,1.471,5.271,5.271,0,0,1,1.8,4.331Zm-29.175-5.843a11.308,11.308,0,0,0,0,14.465,9.77,9.77,0,0,0,13.566,0,11.307,11.307,0,0,0,0-14.465,9.771,9.771,0,0,0-13.566,0Z" transform="translate(-680.423 -1484.898)"/>
  </g>
</svg>
