<svg xmlns="http://www.w3.org/2000/svg" width="107" height="106.998" viewBox="0 0 107 106.998">
  <path id="Soustraction_3" data-name="Soustraction 3" d="M6036.5,105a53.5,53.5,0,0,1-37.83-91.33,53.5,53.5,0,1,1,75.658,75.66A53.148,53.148,0,0,1,6036.5,105Zm7.9-42.977a1.484,1.484,0,0,1,1.527.979c1.418,2.9,2.838,5.732,4.221,8.4a12.945,12.945,0,0,0,24.367-7.761c-.846-6.026-1.748-12.279-2.754-19.115-1.611-10.869-10.525-19.551-21.2-20.643-1.98-.2-5.012-.3-9.264-.3-1.061,0-2.045.006-2.785.012l-.539,0c-.555,0-1,.007-1.3.007a3.982,3.982,0,0,1-.455-.01q-1.849,0-3.693-.01h-.021q-1.837-.007-3.676-.009c-1.7,0-3.109.009-4.436.027-11.131.155-21.154,8.257-23.312,18.847-1.521,7.453-2.486,14.97-3.3,21.982a12.669,12.669,0,0,0,9.326,13.607,13.3,13.3,0,0,0,3.623.509,12.916,12.916,0,0,0,11.477-7.163c1.26-2.464,2.748-5.39,4.215-8.408a1.463,1.463,0,0,1,1.521-.951h.039c2.66.016,5.326.024,7.928.024,2.84,0,5.691-.01,8.473-.028Zm8.264-8.219h-.008a3.576,3.576,0,0,1-2.578-1.1,3.653,3.653,0,0,1-1.053-2.653,3.6,3.6,0,0,1,3.6-3.546h.086a3.648,3.648,0,0,1-.049,7.3Zm-30.225-2.849h-5.5c0-.324,0-.645,0-.964,0-.747.006-1.473-.008-2.208,0-.344,0-.625.006-.9.01-.666.014-1-.152-1.167-.145-.145-.416-.172-.9-.172-.127,0-.27,0-.428,0-.215,0-.447.006-.713.006-1.043,0-2.092,0-3.219,0v-5.43h5.342V34.7c.168-.017.318-.033.451-.048.311-.035.531-.059.76-.062l1.393,0h2.928v5.471h5.42v5.444h-5.383v5.448Zm37.531-4.478h0a3.572,3.572,0,0,1-2.547-1.057,3.657,3.657,0,0,1,2.541-6.252h.031a3.655,3.655,0,0,1,.031,7.309Zm-14.6-.009h-.051a3.649,3.649,0,0,1-.078-7.3c.047,0,.1,0,.148,0a3.669,3.669,0,0,1,3.561,3.818A3.625,3.625,0,0,1,6045.369,46.467Zm7.291-7.328h-.01a3.6,3.6,0,0,1-2.584-1.085A3.663,3.663,0,0,1,6049,35.409a3.585,3.585,0,0,1,3.643-3.546h.045a3.621,3.621,0,0,1,3.578,3.661,3.551,3.551,0,0,1-1.029,2.549A3.607,3.607,0,0,1,6052.66,39.139Z" transform="translate(-5983 2)" fill="#176de2"/>
</svg>
