<svg xmlns="http://www.w3.org/2000/svg" width="52.206" height="59.753" viewBox="0 0 52.206 59.753">
  <g id="Groupe_84" data-name="Groupe 84" transform="translate(-731.267 -29.193)">
    <path id="P1" d="M932.546,80.443a9.583,9.583,0,0,1,7.942,4.246h33.556a1.152,1.152,0,0,1,1.152,1.152v8.313a1.152,1.152,0,0,1-1.152,1.152H940.488a9.554,9.554,0,1,1-7.942-14.864Zm40.346,6.551H939.847a1.152,1.152,0,0,1-1-.581,7.25,7.25,0,1,0,0,7.171,1.153,1.153,0,0,1,1-.581h33.045Z" transform="translate(-191.724 -51.25)" fill="#707070"/>
    <path id="P2" d="M965.642,135.914a9.555,9.555,0,1,1-7.942,14.864H924.144a1.152,1.152,0,0,1-1.152-1.152v-8.314a1.152,1.152,0,0,1,1.152-1.152H957.7A9.581,9.581,0,0,1,965.642,135.914Zm0,16.8a7.25,7.25,0,1,0-6.3-10.836,1.152,1.152,0,0,1-1,.581H925.3v6.009h33.045a1.152,1.152,0,0,1,1,.581A7.271,7.271,0,0,0,965.642,152.719Z" transform="translate(-191.724 -86.399)" fill="#707070"/>
    <path id="P3" d="M932.546,191.385a9.582,9.582,0,0,1,7.942,4.246h33.556a1.152,1.152,0,0,1,1.152,1.152V205.1a1.152,1.152,0,0,1-1.152,1.152H940.488a9.554,9.554,0,1,1-7.942-14.864Zm40.346,6.55H939.847a1.152,1.152,0,0,1-1-.581,7.25,7.25,0,1,0,0,7.171,1.152,1.152,0,0,1,1-.581h33.045Z" transform="translate(-191.724 -121.549)" fill="#707070"/>
  </g>
</svg>
