<svg width="0" height="0" class="hidden">
  <symbol id="boat" xmlns="http://www.w3.org/2000/svg" viewBox="0 0 380.82 386.34">
    <g>
      <ellipse id="Ellipse_9" cx="190.41" cy="193.17" rx="190.41" ry="193.17"></ellipse>
      <g>
        <path fill="currentcolor"
          d="m324.83,225.17c-42.3.04-84.6.03-126.9.03h-3.8V90.11c0-.91.26-1.93-.06-2.71-.57-1.41-1.23-3.42-2.32-3.78-1.12-.37-2.85.81-4.22,1.5-.59.3-.94,1.09-1.39,1.66-23.9,30.02-47.8,60.03-71.7,90.05-6.53,8.19-13.06,16.39-19.59,24.59-1.11,1.4-2.35,3.05-.99,4.63.91,1.06,2.68,1.43,4.11,1.97.56.21,1.26.03,1.9.03h87.18v17.15H57.26c-.91,0-1.83-.05-2.73.03-2.72.25-3.9,1.5-3.84,4.28.23,10.95,2.78,21.34,8.45,30.73,12.89,21.33,31.94,32.07,56.86,32.11,49.77.08,99.55.04,149.32,0,3.54-.01,7.14-.1,10.62-.68,24.24-4.06,41.23-17.45,50.37-40.27,2.23-5.57,2.98-11.74,4.41-17.63h.01v-6.57c-1.6-1.75-3.63-2.03-5.9-2.03Z">
        </path>
        <path fill="currentcolor"
          d="m206.73,208.06h51.94c.55,0,1.1.03,1.64-.03,2.86-.32,4.2-2.91,2.74-5.38-.51-.86-1.2-1.61-1.82-2.39-18.44-23.16-36.89-46.32-55.34-69.47-.47-.59-1.03-1.11-1.86-1.99v79.26h2.7Z">
        </path>
      </g>
    </g>
  </symbol>
  <symbol id="cinema" xmlns="http://www.w3.org/2000/svg" viewBox="0 0 380.82 386.34">
    <g>
      <ellipse cx="190.41" cy="193.17" rx="190.41" ry="193.17"></ellipse>
      <path fill="currentcolor"
        d="m311.81,113.36l-13.32-32.39c-2.71-6.55-10.21-9.67-16.77-6.97l-45.38,18.66,3.98,9.67c1.25,3.05-.21,6.54-3.26,7.8-3.05,1.25-6.54-.21-7.8-3.25l-3.98-9.67L41.66,172.72c-6.55,2.69-9.68,10.18-6.99,16.73h0l13.33,32.39.44-.18c14.11-5.79,30.25.95,36.05,15.06,5.81,14.11-.92,30.26-15.03,36.07l-.44.18,13.33,32.39c2.69,6.55,10.18,9.69,16.74,7.01l183.63-75.52-3.98-9.67c-1.26-3.05.2-6.54,3.25-7.8,3.05-1.26,6.54.2,7.8,3.25l3.98,9.67,45.38-18.66c6.56-2.7,9.69-10.21,7-16.77l-13.32-32.39c-14.11,5.81-30.27-.92-36.07-15.04h0c-5.81-14.12.92-30.27,15.04-36.08h.01Zm-97.35,57.75l-16.69,27.06c-.42.7-.35,1.59.17,2.22l20.6,24.23c.68.8.58,2-.23,2.68-.46.39-1.09.54-1.67.39l-30.89-7.53c-.8-.19-1.64.16-2.07.86l-16.66,27.08c-.55.9-1.72,1.18-2.62.63-.52-.32-.86-.87-.9-1.48l-2.43-31.71c-.07-.82-.65-1.5-1.44-1.7l-30.9-7.49c-1.02-.24-1.65-1.26-1.41-2.28.14-.59.56-1.08,1.12-1.32l29.41-12.1c.77-.29,1.24-1.06,1.17-1.87l-2.43-31.71c-.09-1.04.68-1.96,1.73-2.05.62-.05,1.22.2,1.62.67l20.6,24.23c.52.63,1.4.84,2.15.5l29.41-12.09c.94-.45,2.08-.06,2.53.89.29.61.24,1.32-.13,1.88h-.04Zm64.09,24.15c1.26,3.05-.19,6.54-3.24,7.8h-.01c-3.05,1.26-6.54-.19-7.79-3.24h0s-7.87-19.13-7.87-19.13c-1.26-3.05.2-6.54,3.25-7.8,3.05-1.26,6.54.2,7.8,3.25l7.87,19.12h0Zm-19.12-46.49c1.26,3.05-.19,6.54-3.24,7.8h-.01c-3.05,1.26-6.54-.19-7.79-3.24h0s-7.88-19.13-7.88-19.13c-1.26-3.05.2-6.54,3.25-7.8s6.54.19,7.79,3.24h0s7.88,19.13,7.88,19.13Z">
      </path>
    </g>
  </symbol>
  <symbol id="concert" xmlns="http://www.w3.org/2000/svg" viewBox="0 0 380.82 386.34">
    <g>
      <ellipse cx="190.41" cy="193.17" rx="190.41" ry="193.17"></ellipse>
      <path fill="currentcolor"
        d="m346.15,196.87l-13.32-32.39c-14.11,5.81-30.27-.92-36.07-15.04h0c-5.81-14.12.92-30.27,15.04-36.08h.01l-13.32-32.39c-2.71-6.55-10.21-9.67-16.77-6.97l-45.38,18.66,3.98,9.67c1.25,3.05-.21,6.54-3.26,7.8-3.05,1.25-6.54-.21-7.8-3.25l-3.98-9.67L41.66,172.72c-6.55,2.69-9.68,10.18-6.99,16.73l13.33,32.39.44-.18c14.11-5.79,30.25.95,36.05,15.06,5.81,14.11-.92,30.26-15.03,36.07l-.44.18,13.33,32.39c2.69,6.55,10.18,9.69,16.74,7.01l183.63-75.52-3.98-9.67c-1.26-3.05.2-6.54,3.25-7.8,3.05-1.26,6.54.2,7.8,3.25l3.98,9.67,45.38-18.66c6.56-2.7,9.69-10.21,7-16.77Zm-145.8,37.89c-7.97,0-14.44-6.46-14.44-14.44s6.47-14.44,14.44-14.44c.5,0,1,.03,1.48.08l-9.04-26.12-39.35,13.62,13.33,38.49h-.01c.51,1.48.8,3.07.8,4.72,0,7.97-6.47,14.44-14.44,14.44s-14.44-6.47-14.44-14.44,6.47-14.44,14.44-14.44c.5,0,1,.03,1.49.08l-15.21-43.93c-.91-2.62.48-5.48,3.1-6.39l3.13-1.09,39.35-13.62,1.79-.62h0s1.35-.46,1.35-.46c2.62-.91,5.48.48,6.39,3.1l19.49,56.3h-.01c.51,1.48.8,3.07.8,4.72,0,7.98-6.46,14.44-14.44,14.44Zm55.83-78.19h-.01c-3.05,1.26-6.54-.19-7.79-3.24h0s-7.88-19.13-7.88-19.13c-1.26-3.05.2-6.54,3.25-7.8s6.54.19,7.79,3.24h0s7.88,19.13,7.88,19.13c1.26,3.05-.19,6.54-3.24,7.8Zm19.12,46.49h-.01c-3.05,1.26-6.54-.19-7.79-3.24h0s-7.87-19.13-7.87-19.13c-1.26-3.05.2-6.54,3.25-7.8,3.05-1.26,6.54.2,7.8,3.25l7.87,19.12h-.01c1.26,3.05-.19,6.54-3.24,7.8Z">
      </path>
    </g>
  </symbol>
  <symbol id="culture" xmlns="http://www.w3.org/2000/svg" viewBox="0 0 380.82 386.34">
    <g>
      <ellipse cx="190.41" cy="193.17" rx="190.41" ry="193.17"></ellipse>
      <g>
        <path fill="currentcolor"
          d="m314.54,117.96h-17.72v-5.92c0-3.8-3.08-6.88-6.88-6.88h-66.97c-11.98,0-23.4,5.02-31.57,13.5-8.17-8.48-19.59-13.5-31.57-13.5h-66.97c-3.8,0-6.88,3.08-6.88,6.88v5.92h-18.71c-3.8,0-6.88,3.08-6.88,6.88v161.48c0,3.8,3.08,6.88,6.88,6.88h247.27c3.8,0,6.88-3.08,6.88-6.88V124.84c0-3.8-3.08-6.88-6.88-6.88Zm-91.57.95h60.1v139.62h-60.1c-8.9,0-17.51,2.77-24.69,7.67v-134.34c5.56-8.03,14.86-12.95,24.69-12.95Zm-123.23,0h60.1c9.83,0,19.13,4.92,24.7,12.95v134.34c-7.19-4.9-15.79-7.67-24.7-7.67h-60.1V118.92Zm-25.59,12.8h11.84v133.7c0,3.8,3.08,6.88,6.88,6.88h66.97c7.18,0,14.07,2.62,19.43,7.16h-105.12v-147.73Zm233.52,147.73h-104.13c5.36-4.54,12.26-7.16,19.43-7.16h66.97c3.8,0,6.88-3.08,6.88-6.88v-133.7h10.85v147.73Z">
        </path>
        <path fill="currentcolor"
          d="m116.5,156.96h44.09c2.81,0,5.09-2.28,5.09-5.09s-2.28-5.09-5.09-5.09h-44.09c-2.81,0-5.09,2.28-5.09,5.09s2.28,5.09,5.09,5.09Z">
        </path>
        <path fill="currentcolor"
          d="m116.5,193.32h44.09c2.81,0,5.09-2.28,5.09-5.09s-2.28-5.09-5.09-5.09h-44.09c-2.81,0-5.09,2.28-5.09,5.09s2.28,5.09,5.09,5.09Z">
        </path>
        <path fill="currentcolor"
          d="m165.68,224.58c0-2.81-2.28-5.09-5.09-5.09h-44.09c-2.81,0-5.09,2.28-5.09,5.09s2.28,5.09,5.09,5.09h44.09c2.81,0,5.09-2.28,5.09-5.09Z">
        </path>
        <path fill="currentcolor"
          d="m222.53,156.96h44.09c2.81,0,5.09-2.28,5.09-5.09s-2.28-5.09-5.09-5.09h-44.09c-2.81,0-5.09,2.28-5.09,5.09s2.28,5.09,5.09,5.09Z">
        </path>
        <path fill="currentcolor"
          d="m222.53,193.32h44.09c2.81,0,5.09-2.28,5.09-5.09s-2.28-5.09-5.09-5.09h-44.09c-2.81,0-5.09,2.28-5.09,5.09s2.28,5.09,5.09,5.09Z">
        </path>
        <path fill="currentcolor"
          d="m222.53,229.67h44.09c2.81,0,5.09-2.28,5.09-5.09s-2.28-5.09-5.09-5.09h-44.09c-2.81,0-5.09,2.28-5.09,5.09s2.28,5.09,5.09,5.09Z">
        </path>
      </g>
    </g>
  </symbol>
  <symbol id="video-game" xmlns="http://www.w3.org/2000/svg" viewBox="0 0 381.72 381.72">
    <g>
      <circle cx="190.86" cy="190.86" r="190.86"></circle>
      <path fill="currentcolor" id="Tracé_29"
        d="m244.06,86.38c41.25,5.04,74.05,36.99,80.18,78.09,3.58,24.1,7.05,48.21,10.43,72.33,3.53,23.83-10.71,46.72-33.64,54.1-22.95,7.4-47.86-3.12-58.56-24.73-5.45-10.53-10.78-21.13-15.97-31.8-.87-2.43-3.28-3.96-5.85-3.7-20.67.13-41.35.13-62.05,0-2.56-.29-5,1.2-5.9,3.62-5.19,10.66-10.55,21.25-15.95,31.8-10.39,21.16-34.5,31.78-57.12,25.17-22.84-6.13-37.81-27.97-35.3-51.49,3.25-27.84,6.89-55.74,12.49-83.17,9.6-41.18,45.95-70.56,88.22-71.31,14.9-.21,29.81-.04,44.71-.04.03.27,36.4-.72,54.32,1.11v.02Zm-127.49,40.92v20.52h-20.2v20.53h12.17c9.75,0,8.16-1.08,8.29,8.44.05,3.96,0,7.92,0,12.01h20.8v-20.61h20.37v-20.6h-20.5v-20.71h-16.36c-1.23.03-2.47.23-4.58.42h.01Zm176.92,30.69c-.11-7.55-6.2-13.65-13.75-13.78-7.56,0-13.72,6.09-13.81,13.65-.12,7.61,5.96,13.87,13.56,13.98h.38c7.55-.14,13.61-6.3,13.61-13.85h.01Zm-27.75,27.89c.05-7.56-5.99-13.75-13.54-13.9-7.5-.2-13.75,5.72-13.95,13.22v.2c-.17,7.66,5.89,14.01,13.55,14.18h.21c7.57-.02,13.71-6.13,13.76-13.7h-.03Zm-.07-55.44c.11-7.54-5.91-13.75-13.45-13.86h-.08c-7.55-.17-13.81,5.81-13.98,13.37v.06c-.12,7.66,5.99,13.97,13.66,14.1h.19c7.48.07,13.6-5.94,13.66-13.42v-.27.02Zm-55.12,27.19c-.25,7.59,5.7,13.96,13.29,14.21h.38c7.36.03,13.43-5.76,13.75-13.11.35-7.63-5.56-14.1-13.19-14.45h-.28c-7.49-.21-13.73,5.7-13.94,13.2v.16h0Z">
      </path>
    </g>
  </symbol>
  <symbol id="laser-game" xmlns="http://www.w3.org/2000/svg" viewBox="0 0 380.82 386.34">
    <g>
      <ellipse cx="190.41" cy="193.17" rx="190.41" ry="193.17"></ellipse>
      <g>
        <path fill="currentcolor"
          d="m233.38,111.01c-4.88-9.62-16.64-13.46-26.25-8.58l-138.18,70.13c-9.62,4.88-13.46,16.64-8.58,26.25l25.7,50.64c4.88,9.62,16.64,13.46,26.25,8.58l9.18-4.66,9.67,61.57c1.5,9.53,11.14,15.64,18.68,11.81l37.73-19.15c4.49-2.28,6.86-7.54,5.97-13.22l-5.36-34.15,20.47-10.39c14.54-7.38,20.37-25.22,12.99-39.78l-3.04-5.99,31.89-16.19c9.62-4.88,13.46-16.64,8.58-26.25l-25.7-50.64Zm-26.95,106.8c1.51,2.99,1.78,6.38.74,9.56-1.04,3.18-3.25,5.76-6.23,7.27l-15.53,7.88-2.74-17.45c-.13-.84-.33-1.65-.58-2.43l21.31-10.82,3.04,5.99Z">
        </path>
        <path fill="currentcolor"
          d="m263.21,113.34h-.01c-3.95-7.79-12.9-11.35-20.95-8.79l27.29,53.77c6.83-4.98,9.23-14.32,5.28-22.1l-11.61-22.88Z">
        </path>
        <path fill="currentcolor"
          d="m130.82,132.06h.01l-6.73-6.15c-3.72-3.39-9.14-4.14-13.63-1.86l-37.73,19.15c-7.53,3.82-8.92,14-2.69,19.7l60.77-30.84Z">
        </path>
        <path fill="currentcolor"
          d="m324.38,96.68c-2.13-4.2-7.27-5.88-11.47-3.75l-24.4,12.38c-4.2,2.13-5.88,7.27-3.75,11.47,1.5,2.97,4.5,4.67,7.62,4.67,1.3,0,2.62-.3,3.86-.93l24.4-12.38c4.2-2.13,5.88-7.27,3.75-11.47Z">
        </path>
      </g>
    </g>
  </symbol>
  <symbol id="restaurant" xmlns="http://www.w3.org/2000/svg" viewBox="0 0 380.82 386.34">
    <g>
      <g>
        <ellipse cx="190.41" cy="193.17" rx="190.41" ry="193.17"></ellipse>
      </g>
      <path fill="currentcolor"
        d="m272.73,80.36l-28.98-10.14c-4.73-1.65-9.9.83-11.57,5.55l-20.24,57.15h-77.67l-16.46-18.1c-3.38-3.71-9.13-3.98-12.84-.61-3.71,3.38-3.99,9.13-.61,12.84l72.38,79.57v91.84h-16.72c-5.02,0-9.09,4.07-9.09,9.09s4.07,9.09,9.09,9.09h51.61c5.02,0,9.09-4.07,9.09-9.09s-4.07-9.09-9.09-9.09h-16.71v-91.84l.23-.25,72.14-79.32c3.38-3.71,3.11-9.46-.61-12.84-3.71-3.38-9.46-3.11-12.84.61l-16.46,18.1h-6.16l15.07-42.55,20.43,7.15c4.74,1.66,9.92-.84,11.58-5.58s-.84-9.92-5.58-11.58Zm-54.42,70.74s.04,0,.06,0c.01,0,.02,0,.03,0h2.45l-35.02,38.5-35.02-38.5h67.5Z">
      </path>
    </g>
  </symbol>
  <symbol id="soiree" xmlns="http://www.w3.org/2000/svg" viewBox="0 0 364.38 364.38">
    <g>
      <circle cx="182.19" cy="182.19" r="182.19"></circle>
      <path fill="currentcolor"
        d="m208.89,46.12c.19-.56.3-1.16.3-1.79v-2.42c0-3.05-2.48-5.53-5.53-5.53h-13.79v-13.95h-15.37v13.95h-13.77c-3.05,0-5.53,2.48-5.53,5.53v2.42c0,.63.11,1.23.3,1.79-63.73,12.48-111.97,68.74-111.97,136.07,0,76.46,62.2,138.66,138.66,138.66s138.66-62.2,138.66-138.66c0-67.33-48.24-123.59-111.96-136.07ZM61.87,191.19h37.52c.64,16.93,3.05,33.3,7.1,48.42h-30.4c-7.93-14.59-12.93-31-14.22-48.42Zm129.32-84.41v-44.03c16.43,4.44,31.1,20.8,41.3,44.03h-41.3Zm47.88,18c4.4,14.67,7.2,31.09,7.92,48.41h-55.8v-48.41h47.88Zm-65.88-62.03v44.03h-41.3c10.2-23.23,24.87-39.59,41.3-44.03Zm0,62.03v48.41h-55.8c.73-17.32,3.53-33.74,7.92-48.41h47.88Zm-73.8,48.41h-37.52c1.29-17.42,6.29-33.82,14.22-48.41h30.4c-4.05,15.12-6.46,31.48-7.1,48.41Zm18,18h55.8v48.42h-47.87c-4.4-14.67-7.2-31.1-7.93-48.42Zm55.8,66.42v44.02c-16.42-4.44-31.09-20.79-41.29-44.02h41.29Zm18,44.02v-44.02h41.29c-10.2,23.23-24.87,39.58-41.29,44.02Zm0-62.02v-48.42h55.8c-.73,17.32-3.53,33.75-7.93,48.42h-47.87Zm73.8-48.42h37.52c-1.29,17.42-6.29,33.83-14.22,48.42h-30.4c4.06-15.12,6.47-31.49,7.1-48.42Zm0-18c-.64-16.93-3.05-33.29-7.1-48.41h30.4c7.93,14.59,12.93,30.99,14.22,48.41h-37.52Zm11.32-66.41h-24.23c-2.82-7.36-6.08-14.31-9.75-20.73-2.65-4.65-5.47-8.94-8.44-12.86,16.56,7.89,31.05,19.44,42.42,33.6Zm-145.81-33.6c-2.96,3.93-5.78,8.21-8.44,12.86-3.67,6.43-6.92,13.37-9.75,20.73h-24.23c11.37-14.16,25.86-25.71,42.42-33.6Zm-42.41,184.43h24.23c2.82,7.36,6.08,14.3,9.74,20.72,2.65,4.65,5.47,8.94,8.44,12.86-16.56-7.88-31.04-19.43-42.41-33.59Zm145.81,33.59c2.96-3.93,5.78-8.21,8.44-12.86,3.67-6.42,6.92-13.37,9.75-20.72h24.23c-11.37,14.16-25.85,25.7-42.41,33.59Z">
      </path>
    </g>
  </symbol>
  <symbol id="sport" xmlns="http://www.w3.org/2000/svg" viewBox="0 0 380.82 386.34">
    <g>
      <ellipse cx="190.41" cy="193.17" rx="190.41" ry="193.17"></ellipse>
      <path fill="currentcolor"
        d="m57.42,200.95v-15.58c.15-.75.39-1.49.44-2.24,1.3-18.55,6.2-36.12,15.18-52.37,20.69-37.45,52.11-60.39,94.2-68.48,5.07-.97,10.25-1.41,15.37-2.1h15.58c1.88.22,3.75.45,5.63.66,28.25,3.16,53.3,13.79,74.51,32.76,28.01,25.05,43.02,56.55,44.88,94.06,1.19,24.01-3.74,46.94-15.5,67.93-24.42,43.6-61.84,67.27-111.75,70.35-23.99,1.48-46.86-3.81-67.95-15.41-37.5-20.63-60.42-52.11-68.51-94.21-.97-5.07-1.41-10.24-2.1-15.36h.02Zm137.7-79.89h0c0,6.66.06,13.33-.04,19.99-.03,1.66.53,2.69,1.8,3.69,13.35,10.6,26.67,21.22,39.93,31.92,1.45,1.17,2.62,1.45,4.4.85,13.49-4.58,27.01-9.08,40.55-13.52,1.75-.57,2.64-1.44,3.05-3.28,2.64-11.63,5.44-23.21,8.06-34.85.24-1.08-.06-2.59-.69-3.5-12.66-18.11-28.98-31.93-48.97-41.37-1.07-.5-2.7-.54-3.8-.11-14.08,5.51-28.09,11.17-42.15,16.72-1.6.63-2.23,1.39-2.19,3.19.12,6.75.05,13.5.05,20.25v.02Zm-9.42,0c0-6.75-.04-13.51.03-20.26.02-1.57-.31-2.47-1.94-3.1-14.25-5.55-28.46-11.23-42.71-16.78-.98-.38-2.43-.42-3.36.02-20.17,9.51-36.61,23.46-49.34,41.76-.51.73-.74,1.96-.54,2.83,2.72,11.88,5.58,23.72,8.29,35.6.37,1.61,1.16,2.26,2.6,2.74,13.79,4.54,27.55,9.16,41.35,13.64.99.32,2.59.05,3.4-.59,13.58-10.73,27.11-21.54,40.56-32.43.89-.72,1.55-2.26,1.58-3.43.15-6.66.07-13.33.07-20h.01Zm65.21,146.93c.71-.09.97-.12,1.22-.16,13.23-2.09,26.46-4.19,39.7-6.25,1.64-.26,2.7-.95,3.62-2.42,10.15-16.26,16.29-33.89,18.27-52.94.09-.89-.29-2.05-.86-2.75-8.2-9.95-16.49-19.82-24.7-29.75-.9-1.09-1.64-1.38-3.05-.9-13.82,4.68-27.69,9.24-41.5,13.94-.87.29-1.88,1.31-2.1,2.17-4.16,16.32-8.22,32.67-12.22,49.04-.21.84.02,2.08.54,2.76,6.51,8.74,13.1,17.42,19.7,26.09.42.55,1.08.92,1.39,1.17h0Zm-120.93,0c.35-.28,1.17-.71,1.68-1.38,6.47-8.56,12.93-17.12,19.3-25.76.55-.75.79-2.09.57-3-3.98-16.29-8.02-32.55-12.15-48.8-.22-.88-1.17-1.96-2.02-2.24-13.9-4.73-27.85-9.32-41.76-14.02-1.33-.45-2.01-.16-2.84.84-8.28,10-16.62,19.95-24.88,29.96-.53.64-.87,1.71-.79,2.52,1.98,18.88,8.01,36.36,17.95,52.55,1.18,1.92,2.54,2.74,4.64,3.05,6.33.92,12.64,1.97,18.96,2.96,6.92,1.09,13.84,2.16,21.34,3.33h0Zm8.41,5.51c8.57,13.41,16.98,26.62,25.46,39.77.47.74,1.54,1.33,2.43,1.52,17.38,3.62,34.73,3.14,52-.79.94-.21,1.99-1.07,2.48-1.91,7.06-12.2,14.02-24.45,21.05-36.67.69-1.19.8-2.03-.12-3.22-6.49-8.44-12.86-16.96-19.36-25.39-.58-.76-1.8-1.44-2.73-1.45-19.48-.08-38.95-.08-58.43,0-.87,0-2.03.58-2.56,1.27-6.76,8.88-13.44,17.82-20.23,26.88h0Z">
      </path>
    </g>
  </symbol>
  <symbol id="profil" xmlns="http://www.w3.org/2000/svg" viewBox="0 0 108.94 95.01">
    <g>
      <path
        d="m90.87,94.97c-4.2-5.5-9.59-9.98-15.77-13.1-6.39-3.23-13.46-4.91-20.62-4.9-3.63,0-7.25.43-10.78,1.28-6.8,1.65-13.13,4.83-18.51,9.32-2.65,2.21-5.04,4.7-7.13,7.44-5.59-5.02-10.08-11.13-13.19-17.97-1.58-3.48-2.79-7.11-3.61-10.84C.42,62.36,0,58.43,0,54.49c-.02-10.85,3.22-21.46,9.3-30.45,5.91-8.76,14.24-15.61,23.96-19.73,16.96-7.18,36.4-5.29,51.66,5.02,8.76,5.91,15.61,14.24,19.73,23.96,7.1,16.86,5.28,36.16-4.85,51.39-2.55,3.82-5.55,7.28-8.93,10.32v-.02ZM54.47,22.29c-3.26,0-6.49.65-9.49,1.94-2.9,1.24-5.53,3.04-7.75,5.29-9.54,9.68-9.54,25.22,0,34.9,2.21,2.25,4.85,4.05,7.75,5.29,6.06,2.59,12.92,2.59,18.98,0,2.9-1.24,5.53-3.04,7.75-5.29,9.54-9.68,9.54-25.22,0-34.9-2.21-2.25-4.85-4.05-7.75-5.29-3-1.29-6.23-1.95-9.49-1.94Z">
      </path>
    </g>
  </symbol>
  <symbol id="message" xmlns="http://www.w3.org/2000/svg" viewBox="0 0 104.97 104.97">
    <g>
      <path fill="currentcolor"
        d="m104.92,6.5c.02-.16.03-.32.04-.48,0-.09.02-.18.02-.27,0-.15-.01-.31-.03-.46,0-.1,0-.2-.02-.29-.02-.14-.05-.29-.08-.43-.02-.11-.04-.21-.07-.32,0-.02,0-.05-.01-.07-.06-.21-.13-.4-.21-.6,0,0,0,0,0-.01-.09-.21-.19-.42-.3-.62-.02-.04-.04-.07-.06-.11-.11-.18-.23-.36-.35-.53-.02-.02-.03-.04-.04-.06-.15-.2-.31-.38-.49-.56,0,0,0,0,0,0,0,0,0,0,0,0-.26-.26-.55-.5-.86-.7-.03-.02-.06-.03-.08-.05-.29-.18-.59-.34-.9-.47-.04-.02-.07-.03-.11-.04-.31-.12-.63-.22-.96-.28-.03,0-.06-.01-.09-.02-.33-.06-.67-.1-1.01-.1-.03,0-.05,0-.08,0-.33,0-.67.03-1.01.1-.03,0-.07.02-.1.02-.13.03-.26.05-.39.09L4.18,26.59c-1.79.51-3.23,1.85-3.85,3.61-1.05,2.99.52,6.26,3.5,7.31l47.03,16.59,16.59,47.03c.81,2.29,2.98,3.83,5.41,3.83h.18c2.5-.08,4.66-1.77,5.33-4.18L104.75,7.29s0-.03,0-.05c.04-.16.07-.32.1-.48.02-.09.04-.18.05-.27Zm-25.27,10.72l-25.79,25.79-29.16-10.28,54.95-15.5Zm-7.39,63.05l-10.28-29.16,15.46-15.46,10.32-10.32-15.5,54.94Z">
      </path>
    </g>
  </symbol>
  <symbol id="notification" xmlns="http://www.w3.org/2000/svg" viewBox="0 0 74.56 93.93">
    <g>
      <g>
        <path fill="currentcolor"
          d="m36.89,93.93c-5.31,0-9.62-4.31-9.63-9.63,0-1.62,1.32-2.94,2.94-2.94h14.15c1.62,0,2.94,1.32,2.94,2.94,0,5.31-4.31,9.62-9.63,9.63h-.78Zm-28.76-15.04c-2.16,0-4.23-.87-5.76-2.4C.85,74.97,0,72.91,0,70.76c.02-3.12,1.81-5.96,4.61-7.32.93-.78,1.64-1.78,2.08-2.91.7-1.41,1.13-2.95,1.25-4.52v-21.5c-.01-4.79,1.46-9.47,4.2-13.39,2.66-3.83,6.41-6.77,10.76-8.46h.02c.69-.27,1.28-.73,1.7-1.33.41-.59.63-1.28.63-2,0-5.14,4.17-9.31,9.32-9.31h5.42c5.14,0,9.31,4.17,9.32,9.32,0,.71.22,1.4.63,1.99h.01c.42.62,1.01,1.08,1.69,1.34h.02c4.35,1.69,8.1,4.64,10.76,8.47,2.74,3.93,4.21,8.6,4.2,13.39v21.5c.12,1.57.54,3.11,1.25,4.52.43,1.13,1.15,2.13,2.08,2.91,2.81,1.36,4.6,4.2,4.62,7.32,0,2.15-.85,4.22-2.37,5.74-1.52,1.53-3.6,2.4-5.76,2.4H8.13Zm24.86-61.77c-1.58,2.28-3.81,4.03-6.4,5.03-5.11,1.96-8.48,6.88-8.46,12.35v21.5c-.23,4.59-1.8,9.01-4.53,12.71h47.36c-2.73-3.7-4.31-8.12-4.53-12.71v-21.5c.02-5.48-3.35-10.39-8.46-12.35-2.59-.99-4.83-2.75-6.41-5.03-1.43-2.04-2.26-4.44-2.42-6.93h-3.73c-.16,2.49-1,4.89-2.43,6.94h0Z">
        </path>
      </g>
    </g>
  </symbol>
  <symbol id="accueil" xmlns="http://www.w3.org/2000/svg" viewBox="0 0 106.28 104.97">
    <g>
      <path fill="currentcolor"
        d="m106.26,104.97h-45.22v-21.5h-15.77v21.46H.01v-15.3C.01,74.6.01,59.06,0,43.79c-.05-2.56,1.12-4.99,3.15-6.54,12.32-9.66,24.83-19.5,36.93-29.01l8.49-6.67c2.69-2.1,6.46-2.09,9.15.01l2.1,1.64c1.83,1.44,3.66,2.87,5.49,4.3l8.14,6.4c9.57,7.52,19.47,15.3,29.21,22.93,2.34,1.75,3.69,4.52,3.62,7.44-.03,14.59-.03,29.42-.02,43.77v16.91Zm-32.28-12.94h19.33v-3.96c0-13.79,0-28.03.02-42.08-9.32-7.29-18.75-14.71-27.88-21.89l-8.14-6.39c-1.39-1.09-2.78-2.18-4.17-3.27l-5.06,3.98c-11.52,9.05-23.4,18.39-35.14,27.6.01,14.56.01,29.32.01,43.61v2.36h19.37c0-3.56,0-7.13,0-10.7,0-6.54,4.23-10.76,10.75-10.76,6.7,0,13.4,0,20.1,0,6.56,0,10.8,4.26,10.8,10.85v10.65Z">
      </path>
    </g>
  </symbol>
  <symbol id="escape-game" xmlns="http://www.w3.org/2000/svg" viewBox="0 0 380.82 386.34">
    <g>
      <ellipse cx="190.41" cy="193.17" rx="190.41" ry="193.17"></ellipse>
      <g>
        <path fill="currentcolor"
          d="m313.66,288.13c24.81-32.15,35.31-71.85,31.49-110.39-.65-6.64-1.73-13.25-3.24-19.77-1.5-6.5-3.42-12.91-5.75-19.21-6.45-17.33-16.08-33.74-28.9-48.3-2.18-2.49-4.46-4.92-6.84-7.29s-4.81-4.66-7.29-6.85c-56.02-49.3-139.3-51.44-197.67-6.39l14.28,14.29c50.41-37.39,121.09-35.3,169.22,6.28,2.07,1.8,4.1,3.68,6.08,5.62l-19.48,19.48c-2-1.95-4.06-3.79-6.16-5.54-14.49-12.05-31.4-19.71-48.98-22.99v20.41c12.42,2.87,24.33,8.47,34.78,16.78,2.14,1.7,4.22,3.52,6.23,5.47.42.38.83.79,1.24,1.2,2.39,2.39,4.62,4.89,6.66,7.47,1.76,2.21,3.39,4.48,4.9,6.81,1.87,2.86,3.55,5.82,5.04,8.83,3.02,6.08,5.29,12.45,6.81,18.96,1.54,6.56,2.31,13.27,2.33,19.98.06,22.61-8.53,45.23-25.73,62.45h0c-4.66,4.66-9.72,8.68-15.06,12.07-.23.15-.46.3-.7.45-8.29,5.15-17.25,8.8-26.49,10.93v20.43c14.41-2.7,28.39-8.33,40.94-16.92l19.75,19.75c-50.41,37.39-121.08,35.3-169.22-6.29-2.5-2.16-4.95-4.43-7.33-6.81s-4.65-4.82-6.81-7.33c-15.02-17.4-24.89-37.72-29.6-58.98l26.86-6.13,19.51-4.46c-1.46-6.59-2.14-13.33-2.06-20.04.18-15.8,4.58-31.56,13.21-45.42.15-.23.3-.46.45-.7,3.39-5.34,7.41-10.4,12.07-15.06h0c12.05-12.05,26.76-19.87,42.25-23.45v31.31c-7.66,2.8-14.85,7.27-20.99,13.41-4.97,4.97-8.84,10.62-11.62,16.66-.67,1.46-1.29,2.95-1.83,4.46-2.3,6.35-3.46,13.02-3.49,19.69-.04,11.73,3.46,23.48,10.49,33.47,1.89,2.7,4.05,5.28,6.46,7.69,2.41,2.41,4.98,4.56,7.68,6.45,4.18,2.94,8.65,5.25,13.31,6.95,6.44,2.36,13.22,3.54,20,3.54,8.32,0,16.63-1.77,24.32-5.32,6.04-2.78,11.69-6.65,16.66-11.62,6.18-6.18,10.66-13.41,13.46-21.12l-20.14-3.6c-1.82,3.82-4.3,7.41-7.46,10.57h0c-5.19,5.19-11.51,8.56-18.18,10.1h0s0,0,0,0c-2.85.66-5.75.99-8.66.99-.84,0-1.69-.03-2.53-.08-.27-.02-.53-.05-.8-.08-.57-.05-1.15-.1-1.72-.18-.32-.04-.63-.1-.94-.15-.52-.08-1.04-.16-1.56-.27-.33-.07-.65-.15-.97-.22-.5-.12-1.01-.23-1.51-.37-.32-.09-.64-.19-.96-.29-.5-.15-1-.3-1.49-.48-.31-.11-.61-.22-.92-.34-.5-.19-1-.38-1.5-.6-.29-.12-.57-.25-.86-.38-.51-.23-1.02-.47-1.52-.73-.26-.13-.52-.27-.78-.41-.65-.35-1.3-.71-1.93-1.1-2.44-1.51-4.74-3.32-6.85-5.43-2.45-2.45-4.49-5.14-6.13-8.01-2.74-4.79-4.34-10.06-4.81-15.41-.37-4.03-.09-8.12.83-12.08,0,0,0,0,0,0h0c.17-.75.38-1.49.59-2.22.08-.27.17-.53.25-.8.15-.47.31-.94.48-1.4.11-.31.23-.61.35-.91.17-.42.34-.83.53-1.25.14-.32.28-.65.43-.97.29-.61.59-1.21.91-1.8.1-.19.21-.39.32-.58.36-.64.74-1.28,1.14-1.91.04-.07.09-.13.13-.2.4-.62.82-1.22,1.26-1.82.08-.11.16-.22.25-.33.47-.62.97-1.24,1.48-1.84.09-.11.19-.22.29-.33.54-.62,1.1-1.22,1.69-1.81h0c2.11-2.11,4.42-3.92,6.85-5.43,6.1-3.78,13.05-5.67,20-5.67,6.5,0,13.01,1.66,18.82,4.98,2.87,1.63,5.58,3.68,8.02,6.12,2.44,2.45,4.49,5.14,6.12,8.01,2.74,4.79,4.34,10.05,4.82,15.41l20.15,3.59c.03-11.73-3.46-23.48-10.49-33.47-1.9-2.7-4.05-5.27-6.46-7.68-2.41-2.41-4.98-4.57-7.69-6.46-9.94-7-21.62-10.49-33.3-10.49v-50.03c-6.69,0-13.39.62-20,1.86-20.67,3.86-40.42,13.77-56.38,29.73l-33.63-33.63c-4.79,4.79-9.2,9.81-13.24,15.04h0s0,0,0,0c-24.54,31.8-35.08,71-31.61,109.15.6,6.65,1.63,13.27,3.09,19.81,5.52,24.82,17.16,48.53,34.91,68.71,2.19,2.49,4.47,4.92,6.85,7.29s4.81,4.66,7.29,6.84c56.02,49.31,139.3,51.45,197.67,6.4,0,0,0,0,0,0h0c5.23-4.03,10.25-8.44,15.04-13.23h0s-14.14-14.14-14.14-14.14l-19.49-19.49c22.26-22.26,32.76-51.9,31.48-81.12-.29-6.69-1.2-13.35-2.72-19.89-1.51-6.5-3.63-12.89-6.36-19.06-2.86-6.48-6.38-12.74-10.59-18.67l19.72-19.72c7.63,10.01,13.67,20.84,18.14,32.16,2.46,6.26,4.46,12.66,5.96,19.16,1.5,6.53,2.53,13.16,3.06,19.81,2.57,31.97-6.14,64.69-26.12,91.63l14.29,14.28ZM81.45,112.49l19.75,19.75c-13.19,19.29-19.42,41.94-18.7,64.41l-27.26,6.22c-2.25-31.58,6.49-63.8,26.21-90.38Z">
        </path>
        <path fill="currentcolor"
          d="m135.64,262.08c-2.58-2.05-5.08-4.27-7.47-6.66-2.39-2.39-4.62-4.89-6.66-7.48-4.18-5.26-7.69-10.89-10.49-16.77l-19.9,4.54c4.01,9.37,9.4,18.29,16.17,26.44,2.11,2.54,4.36,5.02,6.74,7.4,2.38,2.38,4.85,4.63,7.39,6.74,14.49,12.05,31.41,19.72,48.99,23,6.61,1.24,13.3,1.86,20,1.86v-20c-6.71,0-13.43-.76-20-2.29-12.42-2.87-24.33-8.46-34.78-16.78Z">
        </path>
        <path fill="currentcolor"
          d="m178.95,220.01h23.35c2.44,0,4.1-2.49,3.15-4.74l-8.03-19.13c3.94-2.38,6.59-6.69,6.59-11.64,0-7.51-6.09-13.6-13.6-13.6s-13.6,6.09-13.6,13.6c0,5.09,2.8,9.51,6.93,11.84l-7.95,18.92c-.95,2.25.71,4.74,3.15,4.74Z">
        </path>
      </g>
    </g>
  </symbol>
  <symbol id="attraction-park" xmlns="http://www.w3.org/2000/svg" viewBox="0 0 380.82 386.34">
    <g>
      <ellipse cx="190.41" cy="193.17" rx="190.41" ry="193.17"></ellipse>
      <path fill="currentcolor"
        d="m284.19,175.89c10.9,0,19.73-8.84,19.73-19.73s-8.84-19.73-19.73-19.73c-.7,0-1.4.04-2.08.11-2.42-11.33-6.89-21.91-13.01-31.33.54-.44,1.07-.91,1.58-1.41,7.71-7.71,7.71-20.2,0-27.91-7.71-7.71-20.2-7.71-27.91,0-.51.51-.98,1.04-1.42,1.58-9.42-6.12-19.99-10.59-31.32-13.01.07-.69.11-1.38.11-2.09,0-10.9-8.84-19.73-19.73-19.73s-19.73,8.84-19.73,19.73c0,.71.04,1.4.11,2.09-11.33,2.42-21.9,6.89-31.32,13.01-.44-.55-.91-1.08-1.42-1.59-7.71-7.71-20.2-7.71-27.91,0-7.71,7.71-7.71,20.2,0,27.91.51.51,1.04.98,1.59,1.42-6.12,9.42-10.59,19.99-13.01,31.32-.69-.07-1.39-.11-2.09-.11-10.9,0-19.73,8.84-19.73,19.73s8.84,19.73,19.73,19.73c.71,0,1.41-.04,2.1-.11,2.42,11.33,6.89,21.91,13,31.32-.55.44-1.08.91-1.59,1.42-7.71,7.71-7.71,20.2,0,27.91,7.71,7.71,20.2,7.71,27.91,0,.51-.51.98-1.04,1.42-1.59,3.51,2.28,7.19,4.34,11,6.14l-44.03,58.83h-13.59c-4.54,0-8.22,3.68-8.22,8.22s3.68,8.22,8.22,8.22h195.12c4.54,0,8.22-3.68,8.22-8.22s-3.68-8.22-8.22-8.22h-13.59l-44.02-58.83c3.81-1.8,7.49-3.85,11-6.13.44.55.91,1.07,1.42,1.58,7.71,7.71,20.2,7.71,27.91,0,7.71-7.71,7.71-20.2,0-27.91-.51-.51-1.04-.98-1.58-1.41,6.12-9.42,10.59-19.99,13.01-31.32.68.07,1.38.11,2.08.11Zm-87.25-94.91c2.68-.94,5.1-2.44,7.11-4.37,12.11,2.07,23.31,6.85,32.96,13.71.07,2.76.71,5.51,1.93,8.05l-39.44,39.44c-.83-.41-1.68-.77-2.57-1.07v-55.76Zm4.26,75.18c0,5.96-4.83,10.79-10.79,10.79s-10.79-4.83-10.79-10.79,4.83-10.79,10.79-10.79,10.79,4.83,10.79,10.79Zm-57.4-65.84c9.64-6.85,20.84-11.63,32.96-13.71,2.01,1.93,4.43,3.43,7.11,4.37v55.76c-.89.3-1.74.66-2.57,1.07l-39.44-39.44c1.22-2.55,1.87-5.29,1.93-8.06Zm-19.23,19.24c2.77-.07,5.51-.72,8.06-1.94l39.43,39.43c-.41.83-.77,1.68-1.07,2.57h-55.77c-.94-2.68-2.44-5.09-4.36-7.1,2.07-12.12,6.86-23.32,13.71-32.96Zm8.05,95.14c-2.55-1.22-5.29-1.87-8.06-1.93-6.84-9.64-11.63-20.84-13.7-32.96,1.93-2.01,3.42-4.43,4.36-7.11h55.76c.3.89.66,1.74,1.07,2.57l-39.44,39.44Zm9.25,9.25l39.44-39.44c.83.41,1.68.77,2.57,1.07v55.76c-2.68.94-5.1,2.44-7.11,4.37-12.12-2.07-23.32-6.86-32.96-13.71-.07-2.76-.71-5.51-1.93-8.05Zm111.99,85.87h-126.9l39.64-52.96c1.38.36,2.78.7,4.19,1-.07.69-.11,1.38-.11,2.09,0,10.9,8.84,19.73,19.73,19.73s19.73-8.84,19.73-19.73c0-.71-.04-1.4-.11-2.09,1.41-.3,2.8-.63,4.19-1l39.64,52.95Zm-16.85-77.82c-9.64,6.85-20.84,11.64-32.96,13.71-2.01-1.93-4.43-3.42-7.11-4.37v-55.76c.89-.3,1.74-.66,2.57-1.07l39.44,39.44c-1.22,2.54-1.87,5.29-1.93,8.05Zm19.24-19.23c-2.77.07-5.51.71-8.06,1.94l-39.44-39.44c.41-.83.77-1.69,1.07-2.57h55.76c.94,2.69,2.44,5.11,4.38,7.12-2.08,12.12-6.86,23.31-13.71,32.95Zm9.34-53.14h-55.77c-.3-.89-.66-1.74-1.07-2.57l39.43-39.43c2.55,1.23,5.31,1.88,8.08,1.94,6.84,9.64,11.63,20.83,13.7,32.95-1.93,2.01-3.43,4.43-4.37,7.11Z">
      </path>
    </g>
  </symbol>
  <symbol id="euro" xmlns="http://www.w3.org/2000/svg" viewBox="0 0 380.82 386.34">
    <g>
      <ellipse cx="190.41" cy="193.17" rx="190.41" ry="193.17"></ellipse>
      <path fill="currentcolor" id="Tracé_82"
        d="m138.18,97.34c17.89-13.62,39.99-20.53,62.45-19.52,8.63-.02,17.23.89,25.67,2.7,7.08,1.36,13.92,3.79,20.27,7.21,8.14,3.75,13.48,11.76,13.81,20.72-.19,5.42-1.91,10.67-4.95,15.16-3.63,5.64-8.26,10.56-13.66,14.52-4.64-4.82-10.35-8.47-16.66-10.66-7.44-2.76-15.33-4.14-23.27-4.05-19.27-1.48-36.98,10.61-42.63,29.09h54.94c9.61,0,14.41,4.3,14.41,12.91-.05,2.58-.37,5.14-.94,7.66-.33,2.16-1.05,4.24-2.1,6.15h-71.42c-.2,3-.3,6.2-.3,9.61,0,3.8.1,7.41.3,10.81h52.54c9.61,0,14.41,4.3,14.41,12.91-.05,2.58-.37,5.14-.94,7.66-.33,2.16-1.05,4.24-2.1,6.15h-56.71c7.63,14.86,21.74,22.29,42.33,22.29,5.25-.06,10.47-.62,15.61-1.69,5.38-1.04,10.65-2.54,15.76-4.5,4-1.42,7.79-3.39,11.26-5.85l19.22,37.23c-5.94,4.41-12.46,8-19.37,10.66-7.78,3.13-15.82,5.59-24.02,7.36-7.94,1.76-16.04,2.67-24.17,2.7-20.89.73-41.42-5.61-58.25-18.01-16.02-12.63-27.33-30.27-32.13-50.1h-23.72v-26.72h19.48c-.2-3.6-.3-7.21-.3-10.81,0-3.2.1-6.41.3-9.61h-19.48v-26.72h22.82c3.85-21.49,14.99-40.99,31.52-55.24Z">
      </path>
    </g>
  </symbol>
  <symbol id="calendar" xmlns="http://www.w3.org/2000/svg" viewBox="0 0 380.82 386.34">
    <g>
      <ellipse cx="190.41" cy="193.17" rx="190.41" ry="193.17"></ellipse>
      <path fill="currentcolor"
        d="m146.55,79.14v15h87.72v-15h-87.72Zm144.79,0h-18.43v15h18.43c13.84,0,25.11,11.27,25.11,25.11v147.84c0,13.84-11.27,25.11-25.11,25.11H89.48c-13.84,0-25.11-11.27-25.11-25.11V119.25c0-13.84,11.27-25.11,25.11-25.11h18.43v-15h-18.43c-22.11,0-40.11,17.99-40.11,40.11v147.84c0,22.12,18,40.11,40.11,40.11h201.86c22.12,0,40.11-17.99,40.11-40.11V119.25c0-22.12-17.99-40.11-40.11-40.11Z">
      </path>
      <rect fill="currentcolor" x="80.06" y="124.5" width="58.74" height="55.38" rx="8.42" ry="8.42"></rect>
      <rect fill="currentcolor" x="161.04" y="124.5" width="58.74" height="55.38" rx="8.42" ry="8.42"></rect>
      <rect fill="currentcolor" x="242.02" y="124.5" width="58.74" height="55.38" rx="8.42" ry="8.42"></rect>
      <rect fill="currentcolor" x="80.06" y="206.47" width="58.74" height="55.38" rx="8.42" ry="8.42"></rect>
      <rect fill="currentcolor" x="161.04" y="206.47" width="58.74" height="55.38" rx="8.42" ry="8.42"></rect>
      <rect fill="currentcolor" x="242.02" y="206.47" width="58.74" height="55.38" rx="8.42" ry="8.42"></rect>
      <rect fill="currentcolor" x="110.91" y="56.28" width="32.64" height="45.72" rx="8.2" ry="8.2"></rect>
      <rect fill="currentcolor" x="237.27" y="56.28" width="32.64" height="45.72" rx="8.2" ry="8.2"></rect>
    </g>
  </symbol>
  <symbol id="member" xmlns="http://www.w3.org/2000/svg" viewBox="0 0 380.82 386.34">
    <g>
      <ellipse cx="190.41" cy="193.17" rx="190.41" ry="193.17"></ellipse>
      <g>
        <path fill="currentcolor"
          d="m123.78,241.48c-38.73-34.27-45.64-92.12-16.05-134.54-8.31-3.12-17.11-4.74-26-4.75-20.02-.04-39.19,8-53.19,22.3-29.37,29.89-29.37,77.8,0,107.69,25.31,25.75,65.43,29.66,95.24,9.3Z">
        </path>
        <path fill="currentcolor"
          d="m81.63,297.42c11.29-8.66,23.59-15.91,36.65-21.58-11.92-3.2-24.21-4.81-36.55-4.81h0c-20.5.01-40.76,4.49-59.33,13.11,8.09,15.35,18.16,29.46,29.87,41.97,8.63-10.68,18.49-20.29,29.36-28.69Z">
        </path>
        <path fill="currentcolor"
          d="m128.48,230.57c33.7,34.3,88.81,34.77,123.1,1.08.36-.35.71-.71,1.08-1.08,34.3-34.89,34.3-90.83,0-125.73-16.35-16.7-38.75-26.09-62.11-26.04-23.35-.04-45.73,9.35-62.07,26.04-34.3,34.9-34.3,90.84,0,125.73Z">
        </path>
        <path fill="currentcolor"
          d="m290.17,305.68c-27.67-21.01-61.48-32.33-96.21-32.21-25.1.07-49.87,5.74-72.5,16.61-22.76,10.96-42.82,26.81-58.73,46.4,33.78,30.99,78.56,49.86,127.68,49.86s94.18-18.99,127.99-50.15c-8.67-11.3-18.01-22.76-28.23-30.51Z">
        </path>
        <path fill="currentcolor"
          d="m262.54,272.29c13.46,5.86,26.13,13.39,37.69,22.42,11.09,8.71,21.11,18.68,29.87,29.73,11.79-12.9,21.86-27.44,29.84-43.24-18.97-9.02-39.72-13.71-60.75-13.72-12.37,0-24.69,1.62-36.65,4.81Z">
        </path>
        <path fill="currentcolor"
          d="m257.04,241.48c29.82,20.36,69.93,16.45,95.24-9.3,29.37-29.89,29.37-77.8,0-107.69-14-14.3-33.17-22.34-53.18-22.3h-.01c-8.88.01-17.68,1.62-26,4.76,29.58,42.42,22.68,100.26-16.05,134.53Z">
        </path>
      </g>
    </g>
  </symbol>
  <symbol id="filtres" xmlns="http://www.w3.org/2000/svg" viewBox="0 0 155.15 157.11">
    <g>
      <circle cx="47.9" cy="24.19" r="24.19"></circle>
      <circle cx="34.44" cy="132.92" r="24.19"></circle>
      <circle cx="116.27" cy="78.55" r="24.19"></circle>
      <rect x="0" y="14.19" width="155.15" height="10" rx="10" ry="10"></rect>
      <rect x="0" y="68.55" width="155.15" height="10" rx="10" ry="10"></rect>
      <rect x="0" y="122.92" width="155.15" height="10" rx="10" ry="10"></rect>
    </g>
  </symbol>
  <symbol id="hamburger" xmlns="http://www.w3.org/2000/svg" viewBox="0 0 155.15 104.54">
    <g>
      <rect x="0" y="0" width="155.15" height="10" rx="10" ry="10"></rect>
      <rect x="0" y="42.27" width="155.15" height="10" rx="10" ry="10"></rect>
      <rect x="0" y="84.54" width="155.15" height="10" rx="10" ry="10"></rect>
    </g>
  </symbol>
  <symbol id="search" xmlns="http://www.w3.org/2000/svg" viewBox="0 0 46.39 44.43">
    <g>
      <path
        d="m41.93,25.99c5.95-5.95,5.95-15.59,0-21.53-5.95-5.95-15.59-5.95-21.53,0-4.52,4.51-5.73,11.37-3.05,17.16L0,38.97l4.07,4.07c1.85,1.85,4.86,1.85,6.72,0h0s13.99-13.99,13.99-13.99c5.8,2.67,12.64,1.46,17.16-3.05Zm-18.85-2.68c-4.46-4.46-4.46-11.7,0-16.16s11.7-4.46,16.16,0c4.46,4.46,4.46,11.7,0,16.16h0c-4.47,4.46-11.7,4.46-16.16,0Z">
      </path>
    </g>
  </symbol>
  <symbol id="parameters" xmlns="http://www.w3.org/2000/svg" viewBox="0 0 296.45 287.57">
    <g>
      <g>
        <path
          d="m296.45,124.08c0-27.52-19.2-54.23-50.69-58.8-19.25-2.79-35.9-14.88-44.51-32.32C186.78,3.67,151.31-8.34,122.03,6.13c-11.64,5.75-21.07,15.18-26.82,26.82-8.61,17.44-25.26,29.53-44.51,32.32C19.2,69.85,0,96.55,0,124.08c-.01,15.86,6.46,31.03,17.92,41.98,11.41,11.11,17.85,26.36,17.85,42.29,0,3.35-.29,6.7-.85,10.01-6.55,38.19,23.81,69.21,58.27,69.21,9.6-.03,19.05-2.4,27.52-6.92,17.23-9.05,37.8-9.05,55.03,0,40.2,21.12,86.69-8.95,86.69-51.88,0-3.49-.31-6.97-.9-10.41-3.3-19.17,3.06-38.73,17-52.3,11.46-10.96,17.93-26.13,17.92-41.98Zm-148.22,126.4c-55.42-.04-100.32-44.99-100.28-100.41s44.99-100.32,100.41-100.28c55.4.04,100.28,44.95,100.28,100.35-.02,55.44-44.97,100.36-100.41,100.34Z">
        </path>
      </g>
    </g>
  </symbol>
  <symbol id="crown" xmlns="http://www.w3.org/2000/svg" viewBox="0 0 344.21 283.58">
    <g>
      <g>
        <path
          d="m34.51,254.14c0,16.26,13.19,29.44,29.44,29.43h216.31c16.24.01,29.42-13.14,29.43-29.38v-21.27H34.51v21.22Z">
        </path>
        <path
          d="m320.25,61.81c-13.23,0-23.96,10.73-23.96,23.96,0,4.59,1.32,9.08,3.81,12.93l-67.77,40.43-50.73-93.39c8.54-3.89,14.03-12.4,14.03-21.79C195.63,10.73,184.91,0,171.68,0c-13.23,0-23.96,10.73-23.96,23.96h0c0,9.66,5.8,18.37,14.71,22.1l-50.55,93.07-67.77-40.43c2.49-3.85,3.82-8.35,3.82-12.93,0-13.23-10.73-23.96-23.96-23.96-13.23,0-23.96,10.73-23.96,23.96,0,13.23,10.73,23.96,23.96,23.96.67,0,1.33-.05,1.99-.1l8.56,98.31h275.19l8.56-98.31c.66.05,1.32.1,2,.1,13.23,0,23.96-10.73,23.96-23.96,0-13.23-10.73-23.96-23.96-23.96h0Z">
        </path>
      </g>
    </g>
  </symbol>
  <symbol id="eye" xmlns="http://www.w3.org/2000/svg" viewBox="0 0 31.51 27">
    <g>
      <path
        d="m15.76,5.68c3.94-.01,7.15,3.17,7.17,7.11,0,.89-.17,1.78-.51,2.6l4.18,4.15c2.18-1.8,3.87-4.12,4.91-6.75C28.11,4.32,18.63.05,10.04,3.12l3.09,3.07c.83-.34,1.72-.51,2.62-.51ZM1.43,1.81l3.27,3.24.66.65C2.97,7.54,1.12,9.99,0,12.79c3.49,8.68,13.33,12.91,22.03,9.46l.6.6,4.2,4.15,1.82-1.81L3.25,0l-1.82,1.81Zm7.92,7.85l2.22,2.2c-.07.3-.11.61-.11.92,0,2.36,1.93,4.27,4.29,4.26,0,0,0,0,.01,0,.31,0,.62-.04.93-.11l2.22,2.2c-3.52,1.76-7.8.33-9.56-3.19-.49-.98-.75-2.07-.75-3.17,0-1.08.27-2.15.76-3.11Zm6.17-1.1l4.51,4.48.03-.23c0-2.36-1.93-4.27-4.29-4.26,0,0,0,0-.01,0h-.24Z">
      </path>
    </g>
  </symbol>
  <symbol id="edit" xmlns="http://www.w3.org/2000/svg" viewBox="0 0 36 36">
    <g>
      <path
        d="m20.44,6.56l9,9-19.54,19.54-8.02.89c-.93.1-1.76-.56-1.86-1.49-.01-.12-.01-.25,0-.37l.89-8.03L20.44,6.56Zm14.57-1.34L30.78.99c-1.32-1.32-3.46-1.32-4.77,0l-3.98,3.98,9,9,3.98-3.98c1.32-1.32,1.32-3.46,0-4.78h0Z">
      </path>
    </g>
  </symbol>
  <symbol id="security" xmlns="http://www.w3.org/2000/svg" viewBox="0 0 31.5 35.9">
    <g>
      <path
        d="m28.12,15.65h-1.69v-5.06C26.38,4.68,21.55-.06,15.65,0,9.83.06,5.12,4.76,5.06,10.58v5.06h-1.69c-1.86,0-3.37,1.51-3.38,3.38v13.5c0,1.86,1.51,3.37,3.38,3.38h24.75c1.86,0,3.37-1.51,3.38-3.38v-13.5c0-1.86-1.51-3.37-3.38-3.38Zm-7.31,0h-10.12v-5.06c.04-2.8,2.34-5.03,5.13-4.99,2.74.04,4.95,2.25,4.99,4.99v5.06Z">
      </path>
    </g>
  </symbol>
  <symbol id="localisation" xmlns="http://www.w3.org/2000/svg" viewBox="0 0 380.82 386.34">
    <g>
      <ellipse cx="190.41" cy="193.17" rx="190.41" ry="193.17"></ellipse>
      <path fill="currentcolor"
        d="m190.22,326.65c-12.53-19.67-25.02-38.93-37.13-58.45-12.92-20.76-26.01-41.44-38.13-62.67-29.27-51.29,5.28-118.59,64.08-125.53,46.57-6.75,89.79,25.52,96.54,72.09.83,5.74,1.08,11.55.73,17.34-.35,11.98-3.52,23.7-9.27,34.21-23.96,40.65-49.46,80.39-74.42,120.45-.73.92-1.53,1.78-2.4,2.57Zm.52-199.44c-20.89-.14-37.93,16.69-38.07,37.57,0,.02,0,.03,0,.05-.12,21.08,16.88,38.27,37.96,38.39.08,0,.16,0,.25,0,20.89-.25,37.7-17.26,37.7-38.16,0-20.9-16.92-37.85-37.82-37.86h-.02Z">
      </path>
    </g>
  </symbol>
  <symbol id="devise" xmlns="http://www.w3.org/2000/svg" viewBox="0 0 1671.126 1695.346">
    <ellipse id="devise" cx="835.563" cy="847.673" rx="835.563" ry="847.673" transform="translate(0 0)"></ellipse>
    <text fill="currentcolor" transform="translate(529.064 1168.673)" font-size="936" font-weight="700">
      <tspan x="0" y="0">€</tspan>
    </text>
  </symbol>
  <symbol id="pin" xmlns="http://www.w3.org/2000/svg" viewBox="0 0 119 119">
    <circle id="pin" cx="59.5" cy="59.5" r="59.5"></circle>
    <path fill="currentcolor" id="pin"
      d="M883.444-619.287c-4.293-6.743-8.575-13.348-12.734-20.029-4.427-7.114-8.914-14.2-13.066-21.476-10.033-17.578,1.809-40.644,21.966-43.019,18.7-2.2,34.123,11.777,33.339,30.638a25.99,25.99,0,0,1-3.177,11.723c-8.213,13.93-16.952,27.549-25.505,41.277A7.372,7.372,0,0,1,883.444-619.287Zm.179-68.348a12.962,12.962,0,0,0-13.046,12.894,13.083,13.083,0,0,0,13.093,13.156,13.078,13.078,0,0,0,12.92-13.075A12.967,12.967,0,0,0,883.624-687.635Z"
      transform="translate(-823.958 720.748)"></path>
  </symbol>
  <symbol id="all" xmlns="http://www.w3.org/2000/svg" viewBox="0 0 380.82 386.34">
    <g>
      <g>
        <ellipse cx="190.41" cy="193.17" rx="190.41" ry="193.17"></ellipse>
      </g>
      <path fill="currentcolor"
        d="m314.94,143.52c-13.35-13.35-31.1-20.7-49.98-20.7s-36.63,7.35-49.98,20.7l-24.99,24.99-24.99-24.99c-13.35-13.35-31.1-20.7-49.98-20.7s-36.63,7.35-49.98,20.7c-27.56,27.56-27.56,72.4,0,99.95,13.78,13.78,31.88,20.67,49.98,20.67s36.2-6.89,49.98-20.67l24.99-24.99,24.99,24.99c13.78,13.78,31.88,20.67,49.98,20.67s36.2-6.89,49.98-20.67c27.56-27.56,27.56-72.4,0-99.95Zm-174.88,75c-13.8,13.8-36.25,13.8-50.05,0-13.8-13.8-13.8-36.25,0-50.05,6.68-6.68,15.57-10.37,25.03-10.37s18.34,3.68,25.03,10.37l24.99,24.99-.04.04.04.04-24.99,24.99Zm149.93,0c-13.8,13.8-36.25,13.8-50.05,0l-24.99-24.99.04-.04-.04-.04,24.99-24.99c13.8-13.8,36.25-13.8,50.05,0,13.8,13.8,13.8,36.25,0,50.05Z">
      </path>
    </g>
  </symbol>
</svg>