<svg width="0" height="0" class="hidden">
  <symbol xmlns="http://www.w3.org/2000/svg" viewBox="0 0 116 117.001" id="calendar">
    <path id="calendar" d="M6028,117a57.21,57.21,0,0,1-22.576-4.6,57.833,57.833,0,0,1-9.852-5.394,58.73,58.73,0,0,1,0-97.019,57.834,57.834,0,0,1,9.852-5.394,57.733,57.733,0,0,1,45.153,0,57.85,57.85,0,0,1,9.852,5.394,58.729,58.729,0,0,1,0,97.019,57.849,57.849,0,0,1-9.852,5.394A57.212,57.212,0,0,1,6028,117Zm-33.106-91.015a7.069,7.069,0,0,0-7.073,7.073V86.952a7.068,7.068,0,0,0,7.073,7.073h66.214a7.067,7.067,0,0,0,7.073-7.073V33.059a7.068,7.068,0,0,0-7.073-7.073h-8.616v2.607a4.886,4.886,0,0,1-.066.707v.006h8.683c.049,0,.1,0,.145,0a3.76,3.76,0,0,1,3.608,3.75V86.952a3.747,3.747,0,0,1-3.753,3.753h-66.214a3.746,3.746,0,0,1-3.752-3.753V33.059a3.76,3.76,0,0,1,3.607-3.75l.145,0h8.684l0-.018a5.511,5.511,0,0,1-.062-.637v-.006h0a.024.024,0,0,1,0-.006V25.985Zm47.088,37.789a.982.982,0,0,0-.98.981V78.966a.982.982,0,0,0,.98.981h14.211a.919.919,0,0,0,.174-.015.979.979,0,0,0,.807-.964V64.755a.982.982,0,0,0-.98-.981Zm-21.353,0a.981.981,0,0,0-.979.981V78.967a.979.979,0,0,0,.805.964.927.927,0,0,0,.174.015h14.229a.98.98,0,0,0,.979-.979V64.755a.981.981,0,0,0-.268-.674l-.012-.012,0,0,0,0,0-.006-.008-.007-.005-.005a.975.975,0,0,0-.623-.267c-.017,0-.034,0-.05,0Zm-20.819,0a.982.982,0,0,0-.981.981V78.967a.979.979,0,0,0,.807.964.928.928,0,0,0,.174.015h14.212a.913.913,0,0,0,.173-.015.979.979,0,0,0,.806-.964V64.755a.981.981,0,0,0-.979-.981Zm42.818-23.71A1.629,1.629,0,0,0,6041,41.693V54.61a1.637,1.637,0,0,0,1.626,1.643h12.919a1.626,1.626,0,0,0,1.626-1.6V41.693a1.629,1.629,0,0,0-1.626-1.628Zm-21.351,0a1.629,1.629,0,0,0-1.627,1.628V54.61a1.637,1.637,0,0,0,1.627,1.643h12.934a1.637,1.637,0,0,0,1.627-1.643V41.693a1.629,1.629,0,0,0-1.627-1.628Zm-20.82,0a1.63,1.63,0,0,0-1.628,1.628V54.61a1.638,1.638,0,0,0,1.628,1.643h12.917A1.637,1.637,0,0,0,6015,54.61V41.693a1.629,1.629,0,0,0-1.626-1.628Zm43.55-21.634a1.829,1.829,0,0,0-1.827,1.827v8.4c0,.006,0,.012,0,.018v.03a.083.083,0,0,0,0,.011v.033a.1.1,0,0,0,0,.012v.007a.158.158,0,0,0,0,.027v.015l0,.015,0,.017a.014.014,0,0,1,0,.008.271.271,0,0,0,.006.034v.008c0,.005,0,.011,0,.016a.18.18,0,0,0,0,.019l0,.006a.286.286,0,0,0,.007.038,1.413,1.413,0,0,0,.1.284l.028.053a1.78,1.78,0,0,0,1.66,1.1h5a1.78,1.78,0,0,0,1.66-1.1l.009-.018.008-.015.011-.022c.016-.035.026-.059.035-.081l0,0a.133.133,0,0,0,.007-.02l0-.008a1.545,1.545,0,0,0,.092-.544V20.258A1.828,1.828,0,0,0,6049,18.431Zm-37.009,0a1.829,1.829,0,0,0-1.827,1.827v8.335a1.508,1.508,0,0,0,.165.713A1.784,1.784,0,0,0,6007,30.4h5a1.781,1.781,0,0,0,1.66-1.1,1.512,1.512,0,0,0,.167-.713V20.258A1.829,1.829,0,0,0,6012,18.431Zm8.485,7.554v2.607a4.866,4.866,0,0,1-.067.713h25.17c0-.009,0-.018,0-.028v-.01c0-.014,0-.029-.006-.043a4.539,4.539,0,0,1-.055-.632V25.985Z" transform="translate(-5970)" fill="#176de2"></path>
  </symbol>
  <symbol xmlns="http://www.w3.org/2000/svg" viewBox="0 0 116 116.144" id="photo">
    <path id="photo" d="M6009.464,116.144a28.641,28.641,0,0,1-28.617-28.6V44.256h11.57V87.547a17.06,17.06,0,0,0,17.047,17.027h47.919a17.048,17.048,0,0,0,17.047-17.027V39.608a17.066,17.066,0,0,0-17.047-17.047h-43.272V10.991h43.272A28.656,28.656,0,0,1,6086,39.608V87.547a28.639,28.639,0,0,1-28.617,28.6Zm.788-52.568a23.173,23.173,0,1,1,23.172,23.17A23.2,23.2,0,0,1,6010.252,63.576Zm3.857,0a19.316,19.316,0,1,0,19.315-19.318A19.337,19.337,0,0,0,6014.109,63.576Zm-31.535-30.308a1.727,1.727,0,0,1-1.728-1.727V22.419h-9.121A1.725,1.725,0,0,1,5970,20.693V12.576a1.726,1.726,0,0,1,1.726-1.727h9.121V1.727A1.727,1.727,0,0,1,5982.575,0h8.115a1.727,1.727,0,0,1,1.728,1.727v9.122h9.12a1.725,1.725,0,0,1,1.727,1.727v8.117a1.725,1.725,0,0,1-1.727,1.726h-9.12v9.122a1.727,1.727,0,0,1-1.728,1.727Z" transform="translate(-5970)"></path>
  </symbol>
  <symbol xmlns="http://www.w3.org/2000/svg" viewBox="0 0 117.002 117.001" id="member">
    <path id="member" d="M6041.518,115a58.209,58.209,0,0,1-42.247-18.086A55.735,55.735,0,0,1,5989.8,83.89a58.534,58.534,0,1,1,103.822-.83V83.1a57,57,0,0,1-9.475,13.4,58.151,58.151,0,0,1-42.626,18.5Zm1-35.065a50.274,50.274,0,0,0-21.608,4.95,51.222,51.222,0,0,0-17.888,14.3,57.334,57.334,0,0,0,77-.015c-2.7-3.539-5.613-7.2-8.828-9.634A47.128,47.128,0,0,0,6042.517,79.936Zm-33.451-.728a42.083,42.083,0,0,0-18.382,4.239,54.778,54.778,0,0,0,9.2,12.676,52.479,52.479,0,0,1,9.153-9.045,51.708,51.708,0,0,1,10.921-6.433A42.005,42.005,0,0,0,6009.066,79.208Zm64.818-1.056a42.283,42.283,0,0,0-10.923,1.435,51.77,51.77,0,0,1,11.232,6.683,53.2,53.2,0,0,1,9.343,9.427,56.168,56.168,0,0,0,9.089-12.839v-.036l.112-.22A42.223,42.223,0,0,0,6073.884,78.152ZM6041.5,21.911a25.819,25.819,0,0,0-18.5,7.763,26.73,26.73,0,0,0,0,37.475,25.946,25.946,0,0,0,37.011,0,26.73,26.73,0,0,0,0-37.475A25.825,25.825,0,0,0,6041.5,21.911Zm32.354,6.971a22.117,22.117,0,0,0-7.75,1.42,30.358,30.358,0,0,1-4.784,40.1,22.227,22.227,0,0,0,28.388-2.774,22.9,22.9,0,0,0,0-32.1A22.139,22.139,0,0,0,6073.857,28.882Zm-64.788,0a22.138,22.138,0,0,0-15.854,6.646,22.9,22.9,0,0,0,0,32.1A22.224,22.224,0,0,0,6021.6,70.4a30.356,30.356,0,0,1-4.784-40.1A22.128,22.128,0,0,0,6009.069,28.882Z" transform="translate(-5983 2)" fill="#176de2"></path>
  </symbol>
  <symbol xmlns="http://www.w3.org/2000/svg" viewBox="0 0 105.468 106.995" id="star">
    <path id="star" d="M6035.733,105a51.756,51.756,0,0,1-20.526-4.2,52.515,52.515,0,0,1-16.762-11.465,54.161,54.161,0,0,1-11.3-58.653,53.364,53.364,0,0,1,11.3-17,52.516,52.516,0,0,1,16.762-11.465,52.212,52.212,0,0,1,41.053,0,52.515,52.515,0,0,1,16.762,11.465,54.159,54.159,0,0,1,11.3,58.652,53.371,53.371,0,0,1-11.3,17.005,52.515,52.515,0,0,1-16.762,11.465A51.761,51.761,0,0,1,6035.733,105Zm0-86.791a.979.979,0,0,0-.937.651l-8.572,23a1,1,0,0,1-.913.651l-25.6.62a1,1,0,0,0-.562,1.809l20.239,14.709a1,1,0,0,1,.367,1.108L6012.476,84a.97.97,0,0,0,.143.884,1.015,1.015,0,0,0,.813.418.984.984,0,0,0,.546-.167l21.208-13.842a1,1,0,0,1,1.094,0l21.208,13.842a.983.983,0,0,0,.545.167,1.015,1.015,0,0,0,.813-.418.968.968,0,0,0,.142-.884l-7.275-23.242a1,1,0,0,1,.367-1.108l20.239-14.709a1,1,0,0,0-.564-1.809l-25.6-.62a1,1,0,0,1-.913-.651l-8.572-23A.979.979,0,0,0,6035.733,18.206Z" transform="translate(-5983 1.999)" fill="#176de2"></path>
  </symbol>
  <symbol id="devise" xmlns="http://www.w3.org/2000/svg" viewBox="0 0 1671.126 1695.346">
    <ellipse id="Ellipse_9" cx="835.563" cy="847.673" rx="835.563" ry="847.673" transform="translate(0 0)" fill="#176de2"></ellipse><text id="_" transform="translate(529.064 1168.673)" fill="#fff" font-size="936" font-family="CoHeadline-Bold, Co Headline" font-weight="700">
      <tspan x="0" y="0">€</tspan>
    </text>
  </symbol>
  <symbol xmlns="http://www.w3.org/2000/svg" viewBox="0 0 108.939 103.962" id="profil">
    <path id="profil" d="M6047.247,103.962v0a54.49,54.49,0,0,0,13.622-9.011,45.961,45.961,0,0,0-15.765-13.1,45.576,45.576,0,0,0-20.619-4.9,46,46,0,0,0-10.781,1.277,45.618,45.618,0,0,0-18.506,9.318,46.1,46.1,0,0,0-7.128,7.445,54.623,54.623,0,0,1-13.194-17.966,54.162,54.162,0,0,1-3.611-10.838A54.8,54.8,0,0,1,5970,54.469a54.213,54.213,0,0,1,9.3-30.454,54.631,54.631,0,0,1,23.965-19.734A54.4,54.4,0,0,1,6054.924,9.3a54.625,54.625,0,0,1,19.735,23.965,54.562,54.562,0,0,1-4.845,51.391,54.7,54.7,0,0,1-22.567,19.3ZM6024.47,22.269a23.97,23.97,0,0,0-9.489,1.939,24.28,24.28,0,0,0-7.749,5.289,24.855,24.855,0,0,0,0,34.9,24.281,24.281,0,0,0,7.749,5.289,24.181,24.181,0,0,0,18.977,0,24.288,24.288,0,0,0,7.748-5.289,24.857,24.857,0,0,0,0-34.9,24.287,24.287,0,0,0-7.748-5.289A23.967,23.967,0,0,0,6024.47,22.269Z" transform="translate(-5970)" fill="#176de2"></path>
  </symbol>
  <symbol id="couronne" xmlns="http://www.w3.org/2000/svg" viewBox="0 0 344.21 283.579">
    <path id="Tracé_69" d="M827.011-289.733A29.439,29.439,0,0,0,856.479-260.3h216.284a29.408,29.408,0,0,0,29.433-29.432v-21.222H827.011Z" transform="translate(-792.499 543.88)"></path>
    <path id="Tracé_70" d="M1137.845-312.694a23.96,23.96,0,0,0-23.959,23.959A23.832,23.832,0,0,0,1117.7-275.8l-67.773,40.427L999.2-328.759a23.948,23.948,0,0,0,14.031-21.786A23.961,23.961,0,0,0,989.274-374.5a23.958,23.958,0,0,0-23.959,23.959,23.966,23.966,0,0,0,14.709,22.1l-50.551,93.067L861.7-275.8a23.8,23.8,0,0,0,3.815-12.935,23.961,23.961,0,0,0-23.959-23.959,23.96,23.96,0,0,0-23.961,23.959,23.96,23.96,0,0,0,23.961,23.959c.674,0,1.333-.048,1.993-.1l8.559,98.313h275.186l8.555-98.312c.659.055,1.324.1,2,.1a23.961,23.961,0,0,0,23.96-23.959A23.961,23.961,0,0,0,1137.845-312.694Z" transform="translate(-817.595 374.504)"></path>
  </symbol>
  <symbol id="pin" xmlns="http://www.w3.org/2000/svg" viewBox="0 0 119 119">
    <circle id="Ellipse_10" cx="59.5" cy="59.5" r="59.5" fill="#176de2"></circle>
    <path id="Tracé_42" d="M883.444-619.287c-4.293-6.743-8.575-13.348-12.734-20.029-4.427-7.114-8.914-14.2-13.066-21.476-10.033-17.578,1.809-40.644,21.966-43.019,18.7-2.2,34.123,11.777,33.339,30.638a25.99,25.99,0,0,1-3.177,11.723c-8.213,13.93-16.952,27.549-25.505,41.277A7.372,7.372,0,0,1,883.444-619.287Zm.179-68.348a12.962,12.962,0,0,0-13.046,12.894,13.083,13.083,0,0,0,13.093,13.156,13.078,13.078,0,0,0,12.92-13.075A12.967,12.967,0,0,0,883.624-687.635Z" transform="translate(-823.958 720.748)" fill="#fff"></path>
  </symbol>
</svg>