<svg width="0" height="0" class="hidden">
  <symbol xmlns="http://www.w3.org/2000/svg" viewBox="0 0 116 117.001" id="calendar">
    <path id="calendar" d="M6028,117a57.21,57.21,0,0,1-22.576-4.6,57.833,57.833,0,0,1-9.852-5.394,58.73,58.73,0,0,1,0-97.019,57.834,57.834,0,0,1,9.852-5.394,57.733,57.733,0,0,1,45.153,0,57.85,57.85,0,0,1,9.852,5.394,58.729,58.729,0,0,1,0,97.019,57.849,57.849,0,0,1-9.852,5.394A57.212,57.212,0,0,1,6028,117Zm-33.106-91.015a7.069,7.069,0,0,0-7.073,7.073V86.952a7.068,7.068,0,0,0,7.073,7.073h66.214a7.067,7.067,0,0,0,7.073-7.073V33.059a7.068,7.068,0,0,0-7.073-7.073h-8.616v2.607a4.886,4.886,0,0,1-.066.707v.006h8.683c.049,0,.1,0,.145,0a3.76,3.76,0,0,1,3.608,3.75V86.952a3.747,3.747,0,0,1-3.753,3.753h-66.214a3.746,3.746,0,0,1-3.752-3.753V33.059a3.76,3.76,0,0,1,3.607-3.75l.145,0h8.684l0-.018a5.511,5.511,0,0,1-.062-.637v-.006h0a.024.024,0,0,1,0-.006V25.985Zm47.088,37.789a.982.982,0,0,0-.98.981V78.966a.982.982,0,0,0,.98.981h14.211a.919.919,0,0,0,.174-.015.979.979,0,0,0,.807-.964V64.755a.982.982,0,0,0-.98-.981Zm-21.353,0a.981.981,0,0,0-.979.981V78.967a.979.979,0,0,0,.805.964.927.927,0,0,0,.174.015h14.229a.98.98,0,0,0,.979-.979V64.755a.981.981,0,0,0-.268-.674l-.012-.012,0,0,0,0,0-.006-.008-.007-.005-.005a.975.975,0,0,0-.623-.267c-.017,0-.034,0-.05,0Zm-20.819,0a.982.982,0,0,0-.981.981V78.967a.979.979,0,0,0,.807.964.928.928,0,0,0,.174.015h14.212a.913.913,0,0,0,.173-.015.979.979,0,0,0,.806-.964V64.755a.981.981,0,0,0-.979-.981Zm42.818-23.71A1.629,1.629,0,0,0,6041,41.693V54.61a1.637,1.637,0,0,0,1.626,1.643h12.919a1.626,1.626,0,0,0,1.626-1.6V41.693a1.629,1.629,0,0,0-1.626-1.628Zm-21.351,0a1.629,1.629,0,0,0-1.627,1.628V54.61a1.637,1.637,0,0,0,1.627,1.643h12.934a1.637,1.637,0,0,0,1.627-1.643V41.693a1.629,1.629,0,0,0-1.627-1.628Zm-20.82,0a1.63,1.63,0,0,0-1.628,1.628V54.61a1.638,1.638,0,0,0,1.628,1.643h12.917A1.637,1.637,0,0,0,6015,54.61V41.693a1.629,1.629,0,0,0-1.626-1.628Zm43.55-21.634a1.829,1.829,0,0,0-1.827,1.827v8.4c0,.006,0,.012,0,.018v.03a.083.083,0,0,0,0,.011v.033a.1.1,0,0,0,0,.012v.007a.158.158,0,0,0,0,.027v.015l0,.015,0,.017a.014.014,0,0,1,0,.008.271.271,0,0,0,.006.034v.008c0,.005,0,.011,0,.016a.18.18,0,0,0,0,.019l0,.006a.286.286,0,0,0,.007.038,1.413,1.413,0,0,0,.1.284l.028.053a1.78,1.78,0,0,0,1.66,1.1h5a1.78,1.78,0,0,0,1.66-1.1l.009-.018.008-.015.011-.022c.016-.035.026-.059.035-.081l0,0a.133.133,0,0,0,.007-.02l0-.008a1.545,1.545,0,0,0,.092-.544V20.258A1.828,1.828,0,0,0,6049,18.431Zm-37.009,0a1.829,1.829,0,0,0-1.827,1.827v8.335a1.508,1.508,0,0,0,.165.713A1.784,1.784,0,0,0,6007,30.4h5a1.781,1.781,0,0,0,1.66-1.1,1.512,1.512,0,0,0,.167-.713V20.258A1.829,1.829,0,0,0,6012,18.431Zm8.485,7.554v2.607a4.866,4.866,0,0,1-.067.713h25.17c0-.009,0-.018,0-.028v-.01c0-.014,0-.029-.006-.043a4.539,4.539,0,0,1-.055-.632V25.985Z" transform="translate(-5970)"></path>
  </symbol>
  <symbol xmlns="http://www.w3.org/2000/svg" viewBox="0 0 116 116.144" id="photo">
    <path id="photo" d="M6009.464,116.144a28.641,28.641,0,0,1-28.617-28.6V44.256h11.57V87.547a17.06,17.06,0,0,0,17.047,17.027h47.919a17.048,17.048,0,0,0,17.047-17.027V39.608a17.066,17.066,0,0,0-17.047-17.047h-43.272V10.991h43.272A28.656,28.656,0,0,1,6086,39.608V87.547a28.639,28.639,0,0,1-28.617,28.6Zm.788-52.568a23.173,23.173,0,1,1,23.172,23.17A23.2,23.2,0,0,1,6010.252,63.576Zm3.857,0a19.316,19.316,0,1,0,19.315-19.318A19.337,19.337,0,0,0,6014.109,63.576Zm-31.535-30.308a1.727,1.727,0,0,1-1.728-1.727V22.419h-9.121A1.725,1.725,0,0,1,5970,20.693V12.576a1.726,1.726,0,0,1,1.726-1.727h9.121V1.727A1.727,1.727,0,0,1,5982.575,0h8.115a1.727,1.727,0,0,1,1.728,1.727v9.122h9.12a1.725,1.725,0,0,1,1.727,1.727v8.117a1.725,1.725,0,0,1-1.727,1.726h-9.12v9.122a1.727,1.727,0,0,1-1.728,1.727Z" transform="translate(-5970)"></path>
  </symbol>
  <symbol xmlns="http://www.w3.org/2000/svg" viewBox="0 0 117.002 117.001" id="member">
    <path id="member" d="M6041.518,115a58.209,58.209,0,0,1-42.247-18.086A55.735,55.735,0,0,1,5989.8,83.89a58.534,58.534,0,1,1,103.822-.83V83.1a57,57,0,0,1-9.475,13.4,58.151,58.151,0,0,1-42.626,18.5Zm1-35.065a50.274,50.274,0,0,0-21.608,4.95,51.222,51.222,0,0,0-17.888,14.3,57.334,57.334,0,0,0,77-.015c-2.7-3.539-5.613-7.2-8.828-9.634A47.128,47.128,0,0,0,6042.517,79.936Zm-33.451-.728a42.083,42.083,0,0,0-18.382,4.239,54.778,54.778,0,0,0,9.2,12.676,52.479,52.479,0,0,1,9.153-9.045,51.708,51.708,0,0,1,10.921-6.433A42.005,42.005,0,0,0,6009.066,79.208Zm64.818-1.056a42.283,42.283,0,0,0-10.923,1.435,51.77,51.77,0,0,1,11.232,6.683,53.2,53.2,0,0,1,9.343,9.427,56.168,56.168,0,0,0,9.089-12.839v-.036l.112-.22A42.223,42.223,0,0,0,6073.884,78.152ZM6041.5,21.911a25.819,25.819,0,0,0-18.5,7.763,26.73,26.73,0,0,0,0,37.475,25.946,25.946,0,0,0,37.011,0,26.73,26.73,0,0,0,0-37.475A25.825,25.825,0,0,0,6041.5,21.911Zm32.354,6.971a22.117,22.117,0,0,0-7.75,1.42,30.358,30.358,0,0,1-4.784,40.1,22.227,22.227,0,0,0,28.388-2.774,22.9,22.9,0,0,0,0-32.1A22.139,22.139,0,0,0,6073.857,28.882Zm-64.788,0a22.138,22.138,0,0,0-15.854,6.646,22.9,22.9,0,0,0,0,32.1A22.224,22.224,0,0,0,6021.6,70.4a30.356,30.356,0,0,1-4.784-40.1A22.128,22.128,0,0,0,6009.069,28.882Z" transform="translate(-5983 2)"></path>
  </symbol>
  <symbol xmlns="http://www.w3.org/2000/svg" viewBox="0 0 105.468 106.995" id="star">
    <path id="star" d="M6035.733,105a51.756,51.756,0,0,1-20.526-4.2,52.515,52.515,0,0,1-16.762-11.465,54.161,54.161,0,0,1-11.3-58.653,53.364,53.364,0,0,1,11.3-17,52.516,52.516,0,0,1,16.762-11.465,52.212,52.212,0,0,1,41.053,0,52.515,52.515,0,0,1,16.762,11.465,54.159,54.159,0,0,1,11.3,58.652,53.371,53.371,0,0,1-11.3,17.005,52.515,52.515,0,0,1-16.762,11.465A51.761,51.761,0,0,1,6035.733,105Zm0-86.791a.979.979,0,0,0-.937.651l-8.572,23a1,1,0,0,1-.913.651l-25.6.62a1,1,0,0,0-.562,1.809l20.239,14.709a1,1,0,0,1,.367,1.108L6012.476,84a.97.97,0,0,0,.143.884,1.015,1.015,0,0,0,.813.418.984.984,0,0,0,.546-.167l21.208-13.842a1,1,0,0,1,1.094,0l21.208,13.842a.983.983,0,0,0,.545.167,1.015,1.015,0,0,0,.813-.418.968.968,0,0,0,.142-.884l-7.275-23.242a1,1,0,0,1,.367-1.108l20.239-14.709a1,1,0,0,0-.564-1.809l-25.6-.62a1,1,0,0,1-.913-.651l-8.572-23A.979.979,0,0,0,6035.733,18.206Z" transform="translate(-5983 1.999)"></path>
  </symbol>
  <symbol id="devise" xmlns="http://www.w3.org/2000/svg" viewBox="0 0 1671.126 1695.346">
    <ellipse id="devise" cx="835.563" cy="847.673" rx="835.563" ry="847.673" transform="translate(0 0)"></ellipse><text id="_" transform="translate(529.064 1168.673)" font-size="936" font-family="CoHeadline-Bold, Co Headline" font-weight="700">
      <tspan x="0" y="0">€</tspan>
    </text>
  </symbol>
  <symbol xmlns="http://www.w3.org/2000/svg" viewBox="0 0 108.939 103.962" id="profil">
    <path id="profil" d="M6047.247,103.962v0a54.49,54.49,0,0,0,13.622-9.011,45.961,45.961,0,0,0-15.765-13.1,45.576,45.576,0,0,0-20.619-4.9,46,46,0,0,0-10.781,1.277,45.618,45.618,0,0,0-18.506,9.318,46.1,46.1,0,0,0-7.128,7.445,54.623,54.623,0,0,1-13.194-17.966,54.162,54.162,0,0,1-3.611-10.838A54.8,54.8,0,0,1,5970,54.469a54.213,54.213,0,0,1,9.3-30.454,54.631,54.631,0,0,1,23.965-19.734A54.4,54.4,0,0,1,6054.924,9.3a54.625,54.625,0,0,1,19.735,23.965,54.562,54.562,0,0,1-4.845,51.391,54.7,54.7,0,0,1-22.567,19.3ZM6024.47,22.269a23.97,23.97,0,0,0-9.489,1.939,24.28,24.28,0,0,0-7.749,5.289,24.855,24.855,0,0,0,0,34.9,24.281,24.281,0,0,0,7.749,5.289,24.181,24.181,0,0,0,18.977,0,24.288,24.288,0,0,0,7.748-5.289,24.857,24.857,0,0,0,0-34.9,24.287,24.287,0,0,0-7.748-5.289A23.967,23.967,0,0,0,6024.47,22.269Z" transform="translate(-5970)"></path>
  </symbol>
  <symbol id="couronne" xmlns="http://www.w3.org/2000/svg" viewBox="0 0 344.21 283.579">
    <path id="couronne" d="M827.011-289.733A29.439,29.439,0,0,0,856.479-260.3h216.284a29.408,29.408,0,0,0,29.433-29.432v-21.222H827.011Z" transform="translate(-792.499 543.88)"></path>
    <path id="couronne" d="M1137.845-312.694a23.96,23.96,0,0,0-23.959,23.959A23.832,23.832,0,0,0,1117.7-275.8l-67.773,40.427L999.2-328.759a23.948,23.948,0,0,0,14.031-21.786A23.961,23.961,0,0,0,989.274-374.5a23.958,23.958,0,0,0-23.959,23.959,23.966,23.966,0,0,0,14.709,22.1l-50.551,93.067L861.7-275.8a23.8,23.8,0,0,0,3.815-12.935,23.961,23.961,0,0,0-23.959-23.959,23.96,23.96,0,0,0-23.961,23.959,23.96,23.96,0,0,0,23.961,23.959c.674,0,1.333-.048,1.993-.1l8.559,98.313h275.186l8.555-98.312c.659.055,1.324.1,2,.1a23.961,23.961,0,0,0,23.96-23.959A23.961,23.961,0,0,0,1137.845-312.694Z" transform="translate(-817.595 374.504)"></path>
  </symbol>
  <symbol id="pin" xmlns="http://www.w3.org/2000/svg" viewBox="0 0 119 119">
    <circle id="pin" cx="59.5" cy="59.5" r="59.5"></circle>
    <path id="pin" d="M883.444-619.287c-4.293-6.743-8.575-13.348-12.734-20.029-4.427-7.114-8.914-14.2-13.066-21.476-10.033-17.578,1.809-40.644,21.966-43.019,18.7-2.2,34.123,11.777,33.339,30.638a25.99,25.99,0,0,1-3.177,11.723c-8.213,13.93-16.952,27.549-25.505,41.277A7.372,7.372,0,0,1,883.444-619.287Zm.179-68.348a12.962,12.962,0,0,0-13.046,12.894,13.083,13.083,0,0,0,13.093,13.156,13.078,13.078,0,0,0,12.92-13.075A12.967,12.967,0,0,0,883.624-687.635Z" transform="translate(-823.958 720.748)"></path>
  </symbol>
  <symbol id="cinema" xmlns="http://www.w3.org/2000/svg" viewBox="0 0 105.467 106.998">
    <path id="cinema" d="M6035.733,105a52.006,52.006,0,0,1-37.287-15.67,54.049,54.049,0,0,1,0-75.659,52.2,52.2,0,0,1,74.576,0,54.049,54.049,0,0,1,0,75.659A52.007,52.007,0,0,1,6035.733,105ZM5999.315,58.81a7.655,7.655,0,0,1,2.922,14.734l-.123.054,3.689,8.971a3.557,3.557,0,0,0,3.289,2.209,3.5,3.5,0,0,0,1.348-.271L6061.3,63.6l-1.1-2.678a1.658,1.658,0,0,1,.9-2.16,1.647,1.647,0,0,1,2.158.9l1.1,2.683,12.57-5.168a3.568,3.568,0,0,0,1.939-4.646l-3.689-8.971a7.657,7.657,0,1,1-5.824-14.164l-3.689-8.971a3.556,3.556,0,0,0-4.641-1.928l-12.57,5.168,1.1,2.678a1.653,1.653,0,1,1-3.057,1.258l-1.105-2.678-50.857,20.915a3.545,3.545,0,0,0-1.932,4.631l3.689,8.971.121-.049A7.614,7.614,0,0,1,5999.315,58.81Zm29.494,8.154a.522.522,0,0,1-.531-.487l-.666-8.778a.532.532,0,0,0-.4-.473l-8.555-2.071a.525.525,0,0,1-.08-1l8.146-3.354a.5.5,0,0,0,.322-.518l-.668-8.778a.528.528,0,0,1,.93-.385l5.7,6.712a.5.5,0,0,0,.389.185.552.552,0,0,0,.209-.042l8.141-3.349a.549.549,0,0,1,.2-.041.531.531,0,0,1,.459.278.508.508,0,0,1-.016.528l-4.621,7.491a.541.541,0,0,0,.045.616l5.705,6.712a.513.513,0,0,1,.078.556.519.519,0,0,1-.473.308.57.57,0,0,1-.131-.016l-8.553-2.081a.506.506,0,0,0-.121-.015.534.534,0,0,0-.455.252l-4.611,7.5A.52.52,0,0,1,6028.81,66.964Zm29.8-12.6a1.657,1.657,0,0,1-1.535-1.026l-2.176-5.3a1.652,1.652,0,0,1,.9-2.16,1.679,1.679,0,0,1,.633-.123,1.643,1.643,0,0,1,1.527,1.026l2.18,5.3a1.653,1.653,0,0,1-.9,2.16A1.632,1.632,0,0,1,6058.614,54.365Zm-5.3-12.874a1.638,1.638,0,0,1-1.525-1.029l-2.18-5.3a1.655,1.655,0,0,1,3.063-1.258l2.174,5.3a1.658,1.658,0,0,1-1.531,2.287Z" transform="translate(-5983.001 2)"></path>
  </symbol>
  <symbol id="video-game" xmlns="http://www.w3.org/2000/svg" viewBox="0 0 107 106.998" >
    <path id="video-game" d="M6036.5,105a53.5,53.5,0,0,1-37.83-91.33,53.5,53.5,0,1,1,75.658,75.66A53.148,53.148,0,0,1,6036.5,105Zm7.9-42.977a1.484,1.484,0,0,1,1.527.979c1.418,2.9,2.838,5.732,4.221,8.4a12.945,12.945,0,0,0,24.367-7.761c-.846-6.026-1.748-12.279-2.754-19.115-1.611-10.869-10.525-19.551-21.2-20.643-1.98-.2-5.012-.3-9.264-.3-1.061,0-2.045.006-2.785.012l-.539,0c-.555,0-1,.007-1.3.007a3.982,3.982,0,0,1-.455-.01q-1.849,0-3.693-.01h-.021q-1.837-.007-3.676-.009c-1.7,0-3.109.009-4.436.027-11.131.155-21.154,8.257-23.312,18.847-1.521,7.453-2.486,14.97-3.3,21.982a12.669,12.669,0,0,0,9.326,13.607,13.3,13.3,0,0,0,3.623.509,12.916,12.916,0,0,0,11.477-7.163c1.26-2.464,2.748-5.39,4.215-8.408a1.463,1.463,0,0,1,1.521-.951h.039c2.66.016,5.326.024,7.928.024,2.84,0,5.691-.01,8.473-.028Zm8.264-8.219h-.008a3.576,3.576,0,0,1-2.578-1.1,3.653,3.653,0,0,1-1.053-2.653,3.6,3.6,0,0,1,3.6-3.546h.086a3.648,3.648,0,0,1-.049,7.3Zm-30.225-2.849h-5.5c0-.324,0-.645,0-.964,0-.747.006-1.473-.008-2.208,0-.344,0-.625.006-.9.01-.666.014-1-.152-1.167-.145-.145-.416-.172-.9-.172-.127,0-.27,0-.428,0-.215,0-.447.006-.713.006-1.043,0-2.092,0-3.219,0v-5.43h5.342V34.7c.168-.017.318-.033.451-.048.311-.035.531-.059.76-.062l1.393,0h2.928v5.471h5.42v5.444h-5.383v5.448Zm37.531-4.478h0a3.572,3.572,0,0,1-2.547-1.057,3.657,3.657,0,0,1,2.541-6.252h.031a3.655,3.655,0,0,1,.031,7.309Zm-14.6-.009h-.051a3.649,3.649,0,0,1-.078-7.3c.047,0,.1,0,.148,0a3.669,3.669,0,0,1,3.561,3.818A3.625,3.625,0,0,1,6045.369,46.467Zm7.291-7.328h-.01a3.6,3.6,0,0,1-2.584-1.085A3.663,3.663,0,0,1,6049,35.409a3.585,3.585,0,0,1,3.643-3.546h.045a3.621,3.621,0,0,1,3.578,3.661,3.551,3.551,0,0,1-1.029,2.549A3.607,3.607,0,0,1,6052.66,39.139Z" transform="translate(-5983 2)"></path>
  </symbol>
  <symbol id="soiree" xmlns="http://www.w3.org/2000/svg" viewBox="0 0 105.468 106.995">
    <path id="soiree" d="M6035.733,105a51.756,51.756,0,0,1-20.526-4.2,52.515,52.515,0,0,1-16.762-11.465,54.161,54.161,0,0,1-11.3-58.653,53.364,53.364,0,0,1,11.3-17,52.516,52.516,0,0,1,16.762-11.465,52.212,52.212,0,0,1,41.053,0,52.515,52.515,0,0,1,16.762,11.465,54.159,54.159,0,0,1,11.3,58.652,53.371,53.371,0,0,1-11.3,17.005,52.515,52.515,0,0,1-16.762,11.465A51.761,51.761,0,0,1,6035.733,105Zm0-86.791a.979.979,0,0,0-.937.651l-8.572,23a1,1,0,0,1-.913.651l-25.6.62a1,1,0,0,0-.562,1.809l20.239,14.709a1,1,0,0,1,.367,1.108L6012.476,84a.97.97,0,0,0,.143.884,1.015,1.015,0,0,0,.813.418.984.984,0,0,0,.546-.167l21.208-13.842a1,1,0,0,1,1.094,0l21.208,13.842a.983.983,0,0,0,.545.167,1.015,1.015,0,0,0,.813-.418.968.968,0,0,0,.142-.884l-7.275-23.242a1,1,0,0,1,.367-1.108l20.239-14.709a1,1,0,0,0-.564-1.809l-25.6-.62a1,1,0,0,1-.913-.651l-8.572-23A.979.979,0,0,0,6035.733,18.206Z" transform="translate(-5983 1.999)"></path>
  </symbol>
   <symbol id="culture" xmlns="http://www.w3.org/2000/svg" viewBox="0 0 380.82 386.34">
    <defs></defs>
    <g id="Calque_1-2">
      <g>
        <ellipse id="Ellipse_9" cx="190.41" cy="193.17" rx="190.41" ry="193.17"></ellipse>
        <g>
          <path stroke-linecap="round" stroke-linejoin="round" stroke-width="13.75px" d="m289.94,265.41h-66.97c-12.91,0-24.89,6.75-31.57,17.8v-153.37s0,0,0,0c6.68-11.05,18.66-17.8,31.57-17.8h66.97s0,153.37,0,153.37Z"></path>
          <path stroke-linecap="round" stroke-linejoin="round" stroke-width="13.75px" d="m92.86,265.41h66.97c12.91,0,24.89,6.75,31.57,17.8v-153.37s0,0,0,0c-6.68-11.05-18.66-17.8-31.57-17.8h-66.97s0,153.37,0,153.37Z"></path>
          <polyline stroke-linecap="round" stroke-linejoin="round" stroke-width="13.75px" points="293.8 124.84 314.54 124.84 314.54 286.32 67.27 286.32 67.27 124.84 89.46 124.84"></polyline>
          <line stroke-width="10.18px" fill="none" stroke="#fff" stroke-linecap="round" stroke-linejoin="round" x1="116.5" y1="151.87" x2="160.59" y2="151.87"></line>
          <line stroke-width="10.18px" fill="none" stroke="#fff" stroke-linecap="round" stroke-linejoin="round" x1="116.5" y1="188.23" x2="160.59" y2="188.23"></line>
          <line stroke-width="10.18px" fill="none" stroke="#fff" stroke-linecap="round" stroke-linejoin="round" x1="116.5" y1="224.58" x2="160.59" y2="224.58"></line>
          <line stroke-width="10.18px" fill="none" stroke="#fff" stroke-linecap="round" stroke-linejoin="round" x1="222.53" y1="151.87" x2="266.62" y2="151.87"></line>
          <line stroke-width="10.18px" fill="none" stroke="#fff" stroke-linecap="round" stroke-linejoin="round" x1="222.53" y1="188.23" x2="266.62" y2="188.23"></line>
          <line stroke-width="10.18px" fill="none" stroke="#fff" stroke-linecap="round" stroke-linejoin="round" x1="222.53" y1="224.58" x2="266.62" y2="224.58"></line>
        </g>
      </g>
    </g>
  </symbol>
  <symbol id="laser-game" xmlns="http://www.w3.org/2000/svg" viewBox="0 0 380.82 386.34">
    <defs></defs>
    <g id="Calque_1-2">
      <g>
        <ellipse id="Ellipse_9" cx="190.41" cy="193.17" rx="190.41" ry="193.17"></ellipse>
        <g>
          <rect x="62.71" y="132.32" width="194.02" height="95.85" rx="19.53" ry="19.53" transform="translate(-64.28 91.8) rotate(-26.91)"></rect>
          <path d="m263.21,113.34l11.61,22.88c3.95,7.78,1.55,17.12-5.28,22.1l-27.29-53.77c8.05-2.56,17,1,20.95,8.78Z"></path>
          <path d="m163.98,213.26l-37.73,19.15c-4.49,2.28-6.86,7.54-5.97,13.22l10.89,69.33c1.5,9.53,11.14,15.64,18.68,11.81l37.73-19.15c4.49-2.28,6.86-7.54,5.97-13.22l-10.89-69.33c-1.5-9.53-11.14-15.64-18.68-11.81Z"></path>
          <path d="m130.82,132.06l-60.77,30.84c-6.23-5.7-4.84-15.88,2.69-19.7l37.73-19.15c4.49-2.28,9.91-1.53,13.63,1.86l6.73,6.15Z"></path>
          <path stroke-miterlimit="10" stroke-width="17.07px" d="m173.67,258.05l31.13-15.8c10.37-5.26,14.5-17.93,9.24-28.3l-7.5-14.77"></path>
          <line stroke-miterlimit="10" stroke-linecap="round" stroke-width="17.07px" x1="292.37" y1="112.92" x2="316.77" y2="100.54"></line>
        </g>
      </g>
    </g>
  </symbol>
  <symbol id="boat" xmlns="http://www.w3.org/2000/svg" viewBox="0 0 380.82 386.34">
    <defs></defs>
    <g id="Calque_1-2">
      <g>
        <ellipse id="Ellipse_9" cx="190.41" cy="193.17" rx="190.41" ry="193.17"></ellipse>
        <g id="GSxRwm">
          <g>
            <path d="m330.72,233.77c-1.43,5.89-2.18,12.06-4.41,17.63-9.14,22.82-26.13,36.21-50.37,40.27-3.48.58-7.08.67-10.62.68-49.77.04-99.55.08-149.32,0-24.92-.04-43.97-10.78-56.86-32.11-5.67-9.39-8.22-19.78-8.45-30.73-.06-2.78,1.12-4.03,3.84-4.28.9-.08,1.82-.03,2.73-.03,42.03,0,84.05,0,126.08,0h3.71v-17.15h-3.22c-27.99,0-55.97,0-83.96,0-.64,0-1.34.18-1.9-.03-1.43-.54-3.2-.91-4.11-1.97-1.36-1.58-.12-3.23.99-4.63,6.53-8.2,13.06-16.4,19.59-24.59,23.9-30.02,47.8-60.03,71.7-90.05.45-.57.8-1.36,1.39-1.66,1.37-.69,3.1-1.87,4.22-1.5,1.09.36,1.75,2.37,2.32,3.78.32.78.06,1.8.06,2.71,0,43.76,0,87.52,0,131.27v3.82c1.48,0,2.64,0,3.8,0,42.3,0,84.6.01,126.9-.03,2.27,0,4.3.28,5.9,2.03v6.56Z"></path>
            <path d="m204.03,208.06v-79.26c.83.88,1.39,1.4,1.86,1.99,18.45,23.15,36.9,46.31,55.34,69.47.62.78,1.31,1.53,1.82,2.39,1.46,2.47.12,5.06-2.74,5.38-.54.06-1.09.03-1.64.03-17.31,0-34.63,0-51.94,0h-2.69Z"></path>
          </g>
        </g>
      </g>
    </g>
  </symbol>
  <symbol id="bar" xmlns="http://www.w3.org/2000/svg" viewBox="0 0 380.82 386.34">
    <defs></defs>
    <g id="Calque_1-2">
      <g>
        <ellipse id="Ellipse_9" cx="190.41" cy="193.17" rx="190.41" ry="193.17"></ellipse>
        <g>
          <line stroke-linecap="round" stroke-width="18.18px" stroke-miterlimit="10" x1="160.03" y1="307.56" x2="211.64" y2="307.56"></line>
          <line stroke-linecap="round" stroke-width="18.18px" stroke-miterlimit="10" x1="185.84" y1="203.11" x2="185.84" y2="307.56"></line>
          <polyline stroke-linecap="round" stroke-width="18.18px" stroke-linejoin="round" points="260.58 120.94 185.84 203.11 111.09 120.94"></polyline>
          <polygon  stroke-linecap="round" stroke-width="18.18px" stroke-miterlimit="10" points="130.26 142.01 241.41 142.01 185.84 203.11 130.26 142.01"></polygon>
          <polyline stroke-linecap="round" stroke-width="18.18px" stroke-linejoin="round" points="269.73 88.94 240.75 78.8 218.37 142.01"></polyline>
        </g>
      </g>
    </g>
  </symbol>
  <symbol id="concert" xmlns="http://www.w3.org/2000/svg" viewBox="0 0 380.82 386.34">
    <defs></defs>
    <g id="Calque_1-2">
      <g>
        <ellipse id="Ellipse_9" cx="190.41" cy="193.17" rx="190.41" ry="193.17"></ellipse>
        <g id="Groupe_64">
          <path id="Tracé_72" d="m311.81,113.36l-13.32-32.39c-2.71-6.55-10.21-9.67-16.77-6.97l-45.38,18.66,3.98,9.67c1.25,3.05-.21,6.54-3.26,7.8-3.05,1.25-6.54-.21-7.8-3.25l-3.98-9.67L41.66,172.72c-6.55,2.69-9.68,10.18-6.99,16.73,0,0,0,0,0,0l13.33,32.39.44-.18c14.11-5.79,30.25.95,36.05,15.06,5.81,14.11-.92,30.26-15.03,36.07l-.44.18,13.33,32.39c2.69,6.55,10.18,9.69,16.74,7.01l183.63-75.52-3.98-9.67c-1.26-3.05.2-6.54,3.25-7.8,3.05-1.26,6.54.2,7.8,3.25l3.98,9.67,45.38-18.66c6.56-2.7,9.69-10.21,7-16.77l-13.32-32.39c-14.11,5.81-30.27-.92-36.07-15.04,0,0,0,0,0-.01-5.81-14.11.92-30.26,15.04-36.07,0,0,0,0,.01,0Zm-33.27,81.9c1.26,3.05-.19,6.54-3.24,7.8,0,0,0,0-.01,0-3.05,1.26-6.54-.19-7.79-3.24,0,0,0,0,0-.01l-7.87-19.12c-1.26-3.05.2-6.54,3.25-7.8,3.05-1.26,6.54.2,7.8,3.25l7.87,19.12Zm-19.12-46.49c1.26,3.05-.19,6.54-3.24,7.8,0,0,0,0-.01,0-3.05,1.26-6.54-.19-7.79-3.24,0,0,0,0,0-.01l-7.88-19.12c-1.26-3.05.2-6.54,3.25-7.8,3.05-1.26,6.54.19,7.79,3.24,0,0,0,0,0,.01l7.88,19.12Z"></path>
        </g>
        <g>
          <circle cx="153.12" cy="236.67" r="14.44"></circle>
          <circle cx="200.35" cy="220.32" r="14.44"></circle>
          <path d="m186.77,156.66l-1.79.62-39.35,13.62-3.13,1.09c-2.62.91-4.01,3.77-3.1,6.39l19.49,56.3,7.88-2.73-13.33-38.49,39.35-13.62,13.33,38.49,7.88-2.73-19.49-56.3c-.91-2.62-3.77-4.01-6.39-3.1l-1.35.47Z"></path>
        </g>
      </g>
    </g>
  </symbol>
  <symbol id="sport" xmlns="http://www.w3.org/2000/svg" viewBox="0 0 380.82 386.34">
    <defs></defs>
    <g id="Calque_1-2">
      <g>
        <ellipse id="Ellipse_9" cx="190.41" cy="193.17" rx="190.41" ry="193.17"></ellipse>
        <g id="KANSMz">
          <path d="m57.42,200.95c0-5.19,0-10.39,0-15.58.15-.75.39-1.49.44-2.24,1.3-18.55,6.2-36.12,15.18-52.37,20.69-37.45,52.11-60.39,94.2-68.48,5.07-.97,10.25-1.41,15.37-2.1,5.19,0,10.39,0,15.58,0,1.88.22,3.75.45,5.63.66,28.25,3.16,53.3,13.79,74.51,32.76,28.01,25.05,43.02,56.55,44.88,94.06,1.19,24.01-3.74,46.94-15.5,67.93-24.42,43.6-61.84,67.27-111.75,70.35-23.99,1.48-46.86-3.81-67.95-15.41-37.5-20.63-60.42-52.11-68.51-94.21-.97-5.07-1.41-10.24-2.1-15.36Zm137.7-79.89h0c0,6.66.06,13.33-.04,19.99-.03,1.66.53,2.69,1.8,3.69,13.35,10.6,26.67,21.22,39.93,31.92,1.45,1.17,2.62,1.45,4.4.85,13.49-4.58,27.01-9.08,40.55-13.52,1.75-.57,2.64-1.44,3.05-3.28,2.64-11.63,5.44-23.21,8.06-34.85.24-1.08-.06-2.59-.69-3.5-12.66-18.11-28.98-31.93-48.97-41.37-1.07-.5-2.7-.54-3.8-.11-14.08,5.51-28.09,11.17-42.15,16.72-1.6.63-2.23,1.39-2.19,3.19.12,6.75.05,13.5.05,20.25Zm-9.42,0c0-6.75-.04-13.51.03-20.26.02-1.57-.31-2.47-1.94-3.1-14.25-5.55-28.46-11.23-42.71-16.78-.98-.38-2.43-.42-3.36.02-20.17,9.51-36.61,23.46-49.34,41.76-.51.73-.74,1.96-.54,2.83,2.72,11.88,5.58,23.72,8.29,35.6.37,1.61,1.16,2.26,2.6,2.74,13.79,4.54,27.55,9.16,41.35,13.64.99.32,2.59.05,3.4-.59,13.58-10.73,27.11-21.54,40.56-32.43.89-.72,1.55-2.26,1.58-3.43.15-6.66.07-13.33.07-20Zm65.21,146.93c.71-.09.97-.12,1.22-.16,13.23-2.09,26.46-4.19,39.7-6.25,1.64-.26,2.7-.95,3.62-2.42,10.15-16.26,16.29-33.89,18.27-52.94.09-.89-.29-2.05-.86-2.75-8.2-9.95-16.49-19.82-24.7-29.75-.9-1.09-1.64-1.38-3.05-.9-13.82,4.68-27.69,9.24-41.5,13.94-.87.29-1.88,1.31-2.1,2.17-4.16,16.32-8.22,32.67-12.22,49.04-.21.84.02,2.08.54,2.76,6.51,8.74,13.1,17.42,19.7,26.09.42.55,1.08.92,1.39,1.17Zm-120.93,0c.35-.28,1.17-.71,1.68-1.38,6.47-8.56,12.93-17.12,19.3-25.76.55-.75.79-2.09.57-3-3.98-16.29-8.02-32.55-12.15-48.8-.22-.88-1.17-1.96-2.02-2.24-13.9-4.73-27.85-9.32-41.76-14.02-1.33-.45-2.01-.16-2.84.84-8.28,10-16.62,19.95-24.88,29.96-.53.64-.87,1.71-.79,2.52,1.98,18.88,8.01,36.36,17.95,52.55,1.18,1.92,2.54,2.74,4.64,3.05,6.33.92,12.64,1.97,18.96,2.96,6.92,1.09,13.84,2.16,21.34,3.33Zm8.41,5.51c8.57,13.41,16.98,26.62,25.46,39.77.47.74,1.54,1.33,2.43,1.52,17.38,3.62,34.73,3.14,52-.79.94-.21,1.99-1.07,2.48-1.91,7.06-12.2,14.02-24.45,21.05-36.67.69-1.19.8-2.03-.12-3.22-6.49-8.44-12.86-16.96-19.36-25.39-.58-.76-1.8-1.44-2.73-1.45-19.48-.08-38.95-.08-58.43,0-.87,0-2.03.58-2.56,1.27-6.76,8.88-13.44,17.82-20.23,26.88Z"></path>
        </g>
      </g>
    </g>
  </symbol>
  <symbol id="notification" xmlns="http://www.w3.org/2000/svg" viewBox="0 0 74.56 78.894" >
    <path id="notification" d="M1644.411-63.826h-58.3a8.145,8.145,0,0,1-5.759-2.4,8.083,8.083,0,0,1-2.369-5.735,8.18,8.18,0,0,1,4.615-7.32,7.121,7.121,0,0,0,2.077-2.912,12.3,12.3,0,0,0,1.247-4.524v-21.5a23.291,23.291,0,0,1,4.2-13.393,23.419,23.419,0,0,1,10.762-8.461l.018-.007a3.638,3.638,0,0,0,1.7-1.327,3.48,3.48,0,0,0,.635-2,9.327,9.327,0,0,1,9.316-9.316h5.419a9.327,9.327,0,0,1,9.316,9.316,3.464,3.464,0,0,0,.627,1.985l.011.015a3.628,3.628,0,0,0,1.695,1.325l.018.007a23.424,23.424,0,0,1,10.761,8.461,23.292,23.292,0,0,1,4.2,13.393v21.5a12.3,12.3,0,0,0,1.247,4.524,7.124,7.124,0,0,0,2.078,2.913,8.179,8.179,0,0,1,4.614,7.319,8.083,8.083,0,0,1-2.37,5.735A8.144,8.144,0,0,1,1644.411-63.826Zm-52.833-10.19h47.363a23.317,23.317,0,0,1-4.531-12.7v-21.5a13.174,13.174,0,0,0-8.458-12.353,13.777,13.777,0,0,1-6.407-5.032,13.6,13.6,0,0,1-2.422-6.928H1613.4a13.606,13.606,0,0,1-2.425,6.933,13.773,13.773,0,0,1-6.4,5.027,13.175,13.175,0,0,0-8.458,12.353v21.5A23.315,23.315,0,0,1,1591.578-74.015Z" transform="translate(-1577.98 142.72)"></path>
  </symbol>
  <symbol id="message" xmlns="http://www.w3.org/2000/svg" viewBox="0 0 104.967 104.968">
    <path id="message" d="M182.179,222.407a5.726,5.726,0,0,1-1.906-.327l-49.618-17.5a5.733,5.733,0,0,1,.35-10.925l93.5-26.382a5.733,5.733,0,0,1,5.611,9.572l-43.881,43.882A5.734,5.734,0,0,1,182.179,222.407Zm-30.657-22.626,29.158,10.284,25.787-25.787Z" transform="translate(-126.829 -167.058)"></path>
    <path id="message" d="M232.214,272.025a5.733,5.733,0,0,1-5.406-3.826l-17.5-49.619a5.733,5.733,0,0,1,1.353-5.961l43.881-43.882a5.733,5.733,0,0,1,9.572,5.611l-26.382,93.5a5.733,5.733,0,0,1-5.334,4.173Zm-10.889-53.852,10.283,29.159,15.5-54.946Z" transform="translate(-159.364 -167.057)"></path>
  </symbol>
  <symbol id="accueil" xmlns="http://www.w3.org/2000/svg" viewBox="0 0 106.276 104.967" >
    <path id="accueil" d="M983.546,1082.558H938.328l0-21.5q-7.885,0-15.769,0,0,4.495,0,8.99v12.469H877.3v-15.3c0-15.024,0-30.56-.012-45.838a8.032,8.032,0,0,1,3.152-6.541c12.316-9.662,24.831-19.5,36.935-29.006l8.487-6.669a7.421,7.421,0,0,1,9.147.012l2.1,1.644q2.75,2.153,5.489,4.3l8.137,6.4c9.57,7.523,19.466,15.3,29.213,22.928a9.009,9.009,0,0,1,3.616,7.437c-.029,14.587-.026,29.423-.023,43.769Zm-32.277-12.941H970.6v-3.963c0-13.79-.006-28.031.02-42.076-9.319-7.294-18.749-14.707-27.883-21.887L934.6,995.3q-2.081-1.634-4.168-3.268l-5.063,3.979c-11.515,9.048-23.4,18.389-35.139,27.6.011,14.56.011,29.318.011,43.612v2.361h19.368q0-5.347.005-10.7c.007-6.535,4.229-10.759,10.754-10.763q10.048-.006,20.1,0c6.559,0,10.8,4.26,10.8,10.847Z" transform="translate(-877.291 -977.591)"></path>
  </symbol>
  <symbol id="search" xmlns="http://www.w3.org/2000/svg" viewBox="0 0 59.753 59.753" >
    <path id="search" d="M30.453,15.226A15.227,15.227,0,1,0,9.976,29.519V54.051h5.752A4.749,4.749,0,0,0,20.477,49.3V29.519A15.252,15.252,0,0,0,30.453,15.226ZM15.227,26.655A11.429,11.429,0,1,1,26.655,15.226,11.442,11.442,0,0,1,15.227,26.655Z" transform="translate(38.219) rotate(45)"></path>
  </symbol>
  <symbol xmlns="http://www.w3.org/2000/svg" viewBox="0 0 135.686 23.679" id="logo">
    <g id="logo" transform="translate(0 0)">
      <g id="logotype">
        <path id="Tracé_13" d="M299.466,1493.964c.124-.45-.39-1.082-.9-.9a3.9,3.9,0,0,1-3.661-1.147,4.027,4.027,0,0,1,.218-5.787c1.721-1.721,4.749-1.735,7.046.562a7.786,7.786,0,0,1-.36,10.981c-4.039,4.039-9.133,3.239-11.352,1.02-.15-.15-.16-.438.052-.44C294.08,1498.222,298.551,1497.285,299.466,1493.964Z" transform="translate(-281.201 -1484.898)"></path>
        <path id="Tracé_14" d="M243.141,1537.208c-.124.45.39,1.082.9.9a3.9,3.9,0,0,1,3.661,1.147,4.027,4.027,0,0,1-.218,5.786c-1.721,1.721-4.749,1.735-7.046-.562a7.786,7.786,0,0,1,.36-10.981c4.039-4.039,9.133-3.239,11.352-1.02.15.15.16.439-.052.441C248.527,1532.951,244.056,1533.888,243.141,1537.208Z" transform="translate(-238.348 -1522.596)"></path>
      </g>
      <g id="curlied">
        <path id="Tracé_15" d="M409.274,1496.224a10.293,10.293,0,0,1,4.03-4,12.134,12.134,0,0,1,6.006-1.443,15.587,15.587,0,0,1,2.65.235,11.105,11.105,0,0,1,2.525.737,5.993,5.993,0,0,1,1.882,1.223,2.356,2.356,0,0,1,.721,1.725,3.242,3.242,0,0,1-.58,1.772,5,5,0,0,1-1.427,1.458,7.075,7.075,0,0,0-2.462-1.725,7.739,7.739,0,0,0-3.089-.627,6.247,6.247,0,0,0-3.23.831,5.756,5.756,0,0,0-2.2,2.305,7.311,7.311,0,0,0-.784,3.481,6.168,6.168,0,0,0,1.772,4.657,6.64,6.64,0,0,0,4.814,1.709,10.049,10.049,0,0,0,2.744-.376,7.608,7.608,0,0,0,2.211-.972l2.415,4.046a9.2,9.2,0,0,1-2.132,1.129,14.869,14.869,0,0,1-2.76.768,16.754,16.754,0,0,1-2.979.266,12.692,12.692,0,0,1-6.084-1.4,10,10,0,0,1-4.046-3.92,11.708,11.708,0,0,1-1.443-5.912A11.95,11.95,0,0,1,409.274,1496.224Z" transform="translate(-378.023 -1489.748)"></path>
        <path id="Tracé_16" d="M543.476,1534.848a6.422,6.422,0,0,1-2.133,5.1,10.125,10.125,0,0,1-11.714,0,6.4,6.4,0,0,1-2.148-5.1V1527.6a2.022,2.022,0,0,1,.69-1.662,2.992,2.992,0,0,1,1.945-.565,6.405,6.405,0,0,1,1.255.125,6.314,6.314,0,0,1,1.16.345v8.06q0,3.262,2.948,3.262t2.948-3.262v-6.3a2.022,2.022,0,0,1,.69-1.662,2.991,2.991,0,0,1,1.944-.565,6.405,6.405,0,0,1,1.255.125,6.323,6.323,0,0,1,1.16.345Z" transform="translate(-476.629 -1518.258)"></path>
        <path id="Tracé_17" d="M638.039,1529.279a6.075,6.075,0,0,1,1.835-4.72,7.321,7.321,0,0,1,5.128-1.678,7.519,7.519,0,0,1,3.685.769,2.268,2.268,0,0,1,1.364,1.991,2.947,2.947,0,0,1-.345,1.317,3.926,3.926,0,0,1-.816,1.129,5.871,5.871,0,0,0-1.411-.5,6.862,6.862,0,0,0-1.537-.188q-2.854,0-2.854,2.979v8.938h-5.049Z" transform="translate(-567.743 -1516.201)"></path>
        <path id="Tracé_18" d="M721.19,1508.012h-5.049v-20.887a2.021,2.021,0,0,1,.69-1.662,2.992,2.992,0,0,1,1.944-.565,6.415,6.415,0,0,1,1.255.125,6.34,6.34,0,0,1,1.16.345Z" transform="translate(-632.108 -1484.898)"></path>
        <path id="Tracé_19" d="M764.714,1489.712a2.941,2.941,0,0,1,0-4,2.625,2.625,0,0,1,1.976-.816,2.663,2.663,0,0,1,2.007.816,2.941,2.941,0,0,1,0,4,2.637,2.637,0,0,1-2.007.831A2.6,2.6,0,0,1,764.714,1489.712Zm4.516,18.3h-5.049v-13.768a2.023,2.023,0,0,1,.69-1.662,2.993,2.993,0,0,1,1.945-.564,6.4,6.4,0,0,1,1.254.125,6.316,6.316,0,0,1,1.16.345Z" transform="translate(-671.492 -1484.898)"></path>
        <path id="Tracé_20" d="M819.262,1539.754a8.845,8.845,0,0,1-4.407-1.066,7.611,7.611,0,0,1-2.964-2.964,8.838,8.838,0,0,1-1.067-4.406,8.483,8.483,0,0,1,1.114-4.375,7.972,7.972,0,0,1,3.058-2.979,8.94,8.94,0,0,1,4.422-1.082,9.064,9.064,0,0,1,3.7.721,6.345,6.345,0,0,1,2.572,1.976,4.633,4.633,0,0,1,.941,2.854,4.064,4.064,0,0,1-2.054,3.8q-2.055,1.192-6.633,1.192-.6,0-1-.016t-.753-.047a2.286,2.286,0,0,0,1.317,1.568,6.074,6.074,0,0,0,2.854.6,8.564,8.564,0,0,0,1.443-.141,11.675,11.675,0,0,0,1.552-.376,4.922,4.922,0,0,0,1.082-.455l1.756,3.513a8.337,8.337,0,0,1-1.9.863,16.4,16.4,0,0,1-2.493.611A15.491,15.491,0,0,1,819.262,1539.754Zm.125-12.984a3.361,3.361,0,0,0-2.431.957,3.238,3.238,0,0,0-.988,2.43,4.1,4.1,0,0,0,.518.031h.486a10.644,10.644,0,0,0,3.685-.455q1.113-.454,1.113-1.333a1.376,1.376,0,0,0-.659-1.176A2.98,2.98,0,0,0,819.387,1526.77Z" transform="translate(-710.139 -1516.201)"></path>
        <path id="Tracé_21" d="M928.415,1499.45a10.394,10.394,0,0,1-1.051,4.845,7.266,7.266,0,0,1-2.979,3.089,9.292,9.292,0,0,1-4.563,1.066,9.516,9.516,0,0,1-4.642-1.082,7.667,7.667,0,0,1-3.058-2.995,8.7,8.7,0,0,1-1.082-4.359,8.926,8.926,0,0,1,1.035-4.344,7.946,7.946,0,0,1,2.791-2.995,7.6,7.6,0,0,1,6.523-.643,5.331,5.331,0,0,1,1.976,1.27v-7.935a6.255,6.255,0,0,1,1.176-.345,6.5,6.5,0,0,1,1.239-.125,2.994,2.994,0,0,1,1.944.565,2.023,2.023,0,0,1,.69,1.662Zm-11.2-2.242a4.34,4.34,0,0,0,0,5.551,3.75,3.75,0,0,0,5.206,0,4.339,4.339,0,0,0,0-5.551,3.75,3.75,0,0,0-5.206,0Z" transform="translate(-792.729 -1484.898)"></path>
      </g>
    </g>
  </symbol>
   <symbol id="hamburger" xmlns="http://www.w3.org/2000/svg" viewBox="0 0 72 72">
    <g id="color"></g>
    <g id="hair"></g>
    <g id="skin"></g>
    <g id="skin-shadow"></g>
    <g id="line">
      <line x1="16" x2="56" y1="26" y2="26" stroke-linecap="round" stroke-linejoin="round" stroke-miterlimit="10" stroke-width="2"></line>
      <line x1="16" x2="56" y1="36" y2="36" stroke-linecap="round" stroke-linejoin="round" stroke-miterlimit="10" stroke-width="2"></line>
      <line x1="16" x2="56" y1="46" y2="46" stroke-linecap="round" stroke-linejoin="round" stroke-miterlimit="10" stroke-width="2"></line>
    </g>
  </symbol>
  <symbol id="logo__mobile" xmlns="http://www.w3.org/2000/svg" viewBox="0 0 27.731 28.478">
    <path id="logo__mobile" d="M2.514,26.319a9.364,9.364,0,0,1,.434-13.207C7.8,8.255,13.931,9.217,16.6,11.885c.181.181.193.528-.062.53-4.3.039-9.673,1.166-10.774,5.159-.149.542.47,1.3,1.084,1.082a4.69,4.69,0,0,1,4.4,1.38A4.844,4.844,0,0,1,10.988,27a5.134,5.134,0,0,1-3.667,1.483A6.849,6.849,0,0,1,2.514,26.319Zm8.617-9.727c-.18-.18-.192-.527.063-.529,4.3-.039,9.673-1.165,10.773-5.16.149-.542-.469-1.3-1.083-1.081a4.69,4.69,0,0,1-4.4-1.38,4.843,4.843,0,0,1,.263-6.96c2.07-2.07,5.711-2.086,8.474.676a9.365,9.365,0,0,1-.434,13.207A10.951,10.951,0,0,1,17.007,18.8,8.389,8.389,0,0,1,11.131,16.592Z" transform="translate(0 0)"></path>
  </symbol>
  <symbol id="filtres" xmlns="http://www.w3.org/2000/svg" viewBox="0 0 7.64 7.51">
    <defs></defs>
    <g id="Composant_53_1">
      <g>
        <line x1=".5" y1="3.76" x2="6.64" y2="3.76"></line>
        <circle cx="6.64" cy="3.76" r="1"></circle>
      </g>
      <g>
        <line x1="7.14" y1="6.51" x2="1" y2="6.51"></line>
        <circle cx="1" cy="6.51" r="1"></circle>
      </g>
      <g>
        <line x1="7.14" y1="1" x2="1" y2="1"></line>
        <circle cx="1" cy="1" r="1"></circle>
      </g>
    </g>
  </symbol>
</svg>