<svg xmlns="http://www.w3.org/2000/svg" width="135.686" height="23.679" viewBox="0 0 135.686 23.679">
  <g id="logo" transform="translate(0 0)">
    <g id="logotype">
      <path id="Tracé_13" data-name="Tracé 13" d="M299.466,1493.964c.124-.45-.39-1.082-.9-.9a3.9,3.9,0,0,1-3.661-1.147,4.027,4.027,0,0,1,.218-5.787c1.721-1.721,4.749-1.735,7.046.562a7.786,7.786,0,0,1-.36,10.981c-4.039,4.039-9.133,3.239-11.352,1.02-.15-.15-.16-.438.052-.44C294.08,1498.222,298.551,1497.285,299.466,1493.964Z" transform="translate(-281.201 -1484.898)" fill="#176de2"/>
      <path id="Tracé_14" data-name="Tracé 14" d="M243.141,1537.208c-.124.45.39,1.082.9.9a3.9,3.9,0,0,1,3.661,1.147,4.027,4.027,0,0,1-.218,5.786c-1.721,1.721-4.749,1.735-7.046-.562a7.786,7.786,0,0,1,.36-10.981c4.039-4.039,9.133-3.239,11.352-1.02.15.15.16.439-.052.441C248.527,1532.951,244.056,1533.888,243.141,1537.208Z" transform="translate(-238.348 -1522.596)" fill="#176de2"/>
    </g>
    <g id="curlied">
      <path id="Tracé_15" data-name="Tracé 15" d="M409.274,1496.224a10.293,10.293,0,0,1,4.03-4,12.134,12.134,0,0,1,6.006-1.443,15.587,15.587,0,0,1,2.65.235,11.105,11.105,0,0,1,2.525.737,5.993,5.993,0,0,1,1.882,1.223,2.356,2.356,0,0,1,.721,1.725,3.242,3.242,0,0,1-.58,1.772,5,5,0,0,1-1.427,1.458,7.075,7.075,0,0,0-2.462-1.725,7.739,7.739,0,0,0-3.089-.627,6.247,6.247,0,0,0-3.23.831,5.756,5.756,0,0,0-2.2,2.305,7.311,7.311,0,0,0-.784,3.481,6.168,6.168,0,0,0,1.772,4.657,6.64,6.64,0,0,0,4.814,1.709,10.049,10.049,0,0,0,2.744-.376,7.608,7.608,0,0,0,2.211-.972l2.415,4.046a9.2,9.2,0,0,1-2.132,1.129,14.869,14.869,0,0,1-2.76.768,16.754,16.754,0,0,1-2.979.266,12.692,12.692,0,0,1-6.084-1.4,10,10,0,0,1-4.046-3.92,11.708,11.708,0,0,1-1.443-5.912A11.95,11.95,0,0,1,409.274,1496.224Z" transform="translate(-378.023 -1489.748)"/>
      <path id="Tracé_16" data-name="Tracé 16" d="M543.476,1534.848a6.422,6.422,0,0,1-2.133,5.1,10.125,10.125,0,0,1-11.714,0,6.4,6.4,0,0,1-2.148-5.1V1527.6a2.022,2.022,0,0,1,.69-1.662,2.992,2.992,0,0,1,1.945-.565,6.405,6.405,0,0,1,1.255.125,6.314,6.314,0,0,1,1.16.345v8.06q0,3.262,2.948,3.262t2.948-3.262v-6.3a2.022,2.022,0,0,1,.69-1.662,2.991,2.991,0,0,1,1.944-.565,6.405,6.405,0,0,1,1.255.125,6.323,6.323,0,0,1,1.16.345Z" transform="translate(-476.629 -1518.258)"/>
      <path id="Tracé_17" data-name="Tracé 17" d="M638.039,1529.279a6.075,6.075,0,0,1,1.835-4.72,7.321,7.321,0,0,1,5.128-1.678,7.519,7.519,0,0,1,3.685.769,2.268,2.268,0,0,1,1.364,1.991,2.947,2.947,0,0,1-.345,1.317,3.926,3.926,0,0,1-.816,1.129,5.871,5.871,0,0,0-1.411-.5,6.862,6.862,0,0,0-1.537-.188q-2.854,0-2.854,2.979v8.938h-5.049Z" transform="translate(-567.743 -1516.201)"/>
      <path id="Tracé_18" data-name="Tracé 18" d="M721.19,1508.012h-5.049v-20.887a2.021,2.021,0,0,1,.69-1.662,2.992,2.992,0,0,1,1.944-.565,6.415,6.415,0,0,1,1.255.125,6.34,6.34,0,0,1,1.16.345Z" transform="translate(-632.108 -1484.898)"/>
      <path id="Tracé_19" data-name="Tracé 19" d="M764.714,1489.712a2.941,2.941,0,0,1,0-4,2.625,2.625,0,0,1,1.976-.816,2.663,2.663,0,0,1,2.007.816,2.941,2.941,0,0,1,0,4,2.637,2.637,0,0,1-2.007.831A2.6,2.6,0,0,1,764.714,1489.712Zm4.516,18.3h-5.049v-13.768a2.023,2.023,0,0,1,.69-1.662,2.993,2.993,0,0,1,1.945-.564,6.4,6.4,0,0,1,1.254.125,6.316,6.316,0,0,1,1.16.345Z" transform="translate(-671.492 -1484.898)"/>
      <path id="Tracé_20" data-name="Tracé 20" d="M819.262,1539.754a8.845,8.845,0,0,1-4.407-1.066,7.611,7.611,0,0,1-2.964-2.964,8.838,8.838,0,0,1-1.067-4.406,8.483,8.483,0,0,1,1.114-4.375,7.972,7.972,0,0,1,3.058-2.979,8.94,8.94,0,0,1,4.422-1.082,9.064,9.064,0,0,1,3.7.721,6.345,6.345,0,0,1,2.572,1.976,4.633,4.633,0,0,1,.941,2.854,4.064,4.064,0,0,1-2.054,3.8q-2.055,1.192-6.633,1.192-.6,0-1-.016t-.753-.047a2.286,2.286,0,0,0,1.317,1.568,6.074,6.074,0,0,0,2.854.6,8.564,8.564,0,0,0,1.443-.141,11.675,11.675,0,0,0,1.552-.376,4.922,4.922,0,0,0,1.082-.455l1.756,3.513a8.337,8.337,0,0,1-1.9.863,16.4,16.4,0,0,1-2.493.611A15.491,15.491,0,0,1,819.262,1539.754Zm.125-12.984a3.361,3.361,0,0,0-2.431.957,3.238,3.238,0,0,0-.988,2.43,4.1,4.1,0,0,0,.518.031h.486a10.644,10.644,0,0,0,3.685-.455q1.113-.454,1.113-1.333a1.376,1.376,0,0,0-.659-1.176A2.98,2.98,0,0,0,819.387,1526.77Z" transform="translate(-710.139 -1516.201)"/>
      <path id="Tracé_21" data-name="Tracé 21" d="M928.415,1499.45a10.394,10.394,0,0,1-1.051,4.845,7.266,7.266,0,0,1-2.979,3.089,9.292,9.292,0,0,1-4.563,1.066,9.516,9.516,0,0,1-4.642-1.082,7.667,7.667,0,0,1-3.058-2.995,8.7,8.7,0,0,1-1.082-4.359,8.926,8.926,0,0,1,1.035-4.344,7.946,7.946,0,0,1,2.791-2.995,7.6,7.6,0,0,1,6.523-.643,5.331,5.331,0,0,1,1.976,1.27v-7.935a6.255,6.255,0,0,1,1.176-.345,6.5,6.5,0,0,1,1.239-.125,2.994,2.994,0,0,1,1.944.565,2.023,2.023,0,0,1,.69,1.662Zm-11.2-2.242a4.34,4.34,0,0,0,0,5.551,3.75,3.75,0,0,0,5.206,0,4.339,4.339,0,0,0,0-5.551,3.75,3.75,0,0,0-5.206,0Z" transform="translate(-792.729 -1484.898)"/>
    </g>
  </g>
</svg>
