<svg xmlns="http://www.w3.org/2000/svg" width="61.086" height="62.706" viewBox="0 0 61.086 62.706">
  <g id="logotype" transform="translate(0.501 0.503)">
    <path id="Tracé_13" data-name="Tracé 13" d="M314.11,1508.522c.324-1.174-1.017-2.819-2.347-2.344a10.16,10.16,0,0,1-9.539-2.989c-4.06-4.06-3.917-10.593.569-15.078s12.375-4.52,18.36,1.465c6.321,6.32,8.493,19.183-.938,28.614-10.524,10.524-23.8,8.44-29.581,2.658-.391-.391-.417-1.143.136-1.147C300.076,1519.616,311.726,1517.175,314.11,1508.522Z" transform="translate(-266.516 -1484.898)" fill="#176de2" stroke="rgba(0,0,0,0)" stroke-width="1"/>
    <path id="Tracé_14" data-name="Tracé 14" d="M250.837,1547.754c-.323,1.174,1.017,2.82,2.348,2.344a10.161,10.161,0,0,1,9.539,2.99c4.06,4.059,3.917,10.593-.569,15.078s-12.374,4.521-18.36-1.465c-6.321-6.32-8.493-19.182.939-28.614,10.524-10.524,23.8-8.44,29.581-2.658.391.392.417,1.143-.136,1.148C264.871,1536.661,253.222,1539.1,250.837,1547.754Z" transform="translate(-238.348 -1509.678)" fill="#176de2" stroke="rgba(0,0,0,0)" stroke-width="1"/>
  </g>
</svg>
