<svg id="Composant_43_1" data-name="Composant 43 – 1" xmlns="http://www.w3.org/2000/svg" width="104.967" height="104.968" viewBox="0 0 104.967 104.968">
  <path id="Tracé_25" data-name="Tracé 25" d="M182.179,222.407a5.726,5.726,0,0,1-1.906-.327l-49.618-17.5a5.733,5.733,0,0,1,.35-10.925l93.5-26.382a5.733,5.733,0,0,1,5.611,9.572l-43.881,43.882A5.734,5.734,0,0,1,182.179,222.407Zm-30.657-22.626,29.158,10.284,25.787-25.787Z" transform="translate(-126.829 -167.058)"/>
  <path id="Tracé_26" data-name="Tracé 26" d="M232.214,272.025a5.733,5.733,0,0,1-5.406-3.826l-17.5-49.619a5.733,5.733,0,0,1,1.353-5.961l43.881-43.882a5.733,5.733,0,0,1,9.572,5.611l-26.382,93.5a5.733,5.733,0,0,1-5.334,4.173Zm-10.889-53.852,10.283,29.159,15.5-54.946Z" transform="translate(-159.364 -167.057)"/>
</svg>
