<svg id="parametres" xmlns="http://www.w3.org/2000/svg" width="296.449" height="287.556" viewBox="0 0 296.449 287.556">
  <path id="parametres-2" data-name="parametres" d="M2780.08,912.7c0-27.522-19.2-54.228-50.689-58.8a59.111,59.111,0,0,1-44.51-32.321,59.143,59.143,0,0,0-106.045,0,59.105,59.105,0,0,1-44.514,32.321c-31.486,4.574-50.691,31.272-50.691,58.8a58.025,58.025,0,0,0,17.924,41.983,59.033,59.033,0,0,1,17.85,42.293,59.724,59.724,0,0,1-.85,10.006c-6.551,38.19,23.813,69.21,58.268,69.21a58.873,58.873,0,0,0,27.518-6.917,59.192,59.192,0,0,1,55.031,0c40.2,21.117,86.691-8.951,86.691-51.884a61.868,61.868,0,0,0-.9-10.409,59.022,59.022,0,0,1,17-52.3A58.03,58.03,0,0,0,2780.08,912.7ZM2631.859,1039.1a100.345,100.345,0,1,1,100.41-100.34A100.376,100.376,0,0,1,2631.859,1039.1Z" transform="translate(-2483.631 -788.641)"/>
</svg>
