<svg xmlns="http://www.w3.org/2000/svg" width="117.002" height="117.001" viewBox="0 0 117.002 117.001">
  <path id="Soustraction_2" data-name="Soustraction 2" d="M6041.518,115a58.209,58.209,0,0,1-42.247-18.086A55.735,55.735,0,0,1,5989.8,83.89a58.534,58.534,0,1,1,103.822-.83V83.1a57,57,0,0,1-9.475,13.4,58.151,58.151,0,0,1-42.626,18.5Zm1-35.065a50.274,50.274,0,0,0-21.608,4.95,51.222,51.222,0,0,0-17.888,14.3,57.334,57.334,0,0,0,77-.015c-2.7-3.539-5.613-7.2-8.828-9.634A47.128,47.128,0,0,0,6042.517,79.936Zm-33.451-.728a42.083,42.083,0,0,0-18.382,4.239,54.778,54.778,0,0,0,9.2,12.676,52.479,52.479,0,0,1,9.153-9.045,51.708,51.708,0,0,1,10.921-6.433A42.005,42.005,0,0,0,6009.066,79.208Zm64.818-1.056a42.283,42.283,0,0,0-10.923,1.435,51.77,51.77,0,0,1,11.232,6.683,53.2,53.2,0,0,1,9.343,9.427,56.168,56.168,0,0,0,9.089-12.839v-.036l.112-.22A42.223,42.223,0,0,0,6073.884,78.152ZM6041.5,21.911a25.819,25.819,0,0,0-18.5,7.763,26.73,26.73,0,0,0,0,37.475,25.946,25.946,0,0,0,37.011,0,26.73,26.73,0,0,0,0-37.475A25.825,25.825,0,0,0,6041.5,21.911Zm32.354,6.971a22.117,22.117,0,0,0-7.75,1.42,30.358,30.358,0,0,1-4.784,40.1,22.227,22.227,0,0,0,28.388-2.774,22.9,22.9,0,0,0,0-32.1A22.139,22.139,0,0,0,6073.857,28.882Zm-64.788,0a22.138,22.138,0,0,0-15.854,6.646,22.9,22.9,0,0,0,0,32.1A22.224,22.224,0,0,0,6021.6,70.4a30.356,30.356,0,0,1-4.784-40.1A22.128,22.128,0,0,0,6009.069,28.882Z" transform="translate(-5983 2)" fill="#176de2"/>
</svg>
