<svg xmlns="http://www.w3.org/2000/svg" width="116" height="116.144" viewBox="0 0 116 116.144">
  <path id="photo" d="M6009.464,116.144a28.641,28.641,0,0,1-28.617-28.6V44.256h11.57V87.547a17.06,17.06,0,0,0,17.047,17.027h47.919a17.048,17.048,0,0,0,17.047-17.027V39.608a17.066,17.066,0,0,0-17.047-17.047h-43.272V10.991h43.272A28.656,28.656,0,0,1,6086,39.608V87.547a28.639,28.639,0,0,1-28.617,28.6Zm.788-52.568a23.173,23.173,0,1,1,23.172,23.17A23.2,23.2,0,0,1,6010.252,63.576Zm3.857,0a19.316,19.316,0,1,0,19.315-19.318A19.337,19.337,0,0,0,6014.109,63.576Zm-31.535-30.308a1.727,1.727,0,0,1-1.728-1.727V22.419h-9.121A1.725,1.725,0,0,1,5970,20.693V12.576a1.726,1.726,0,0,1,1.726-1.727h9.121V1.727A1.727,1.727,0,0,1,5982.575,0h8.115a1.727,1.727,0,0,1,1.728,1.727v9.122h9.12a1.725,1.725,0,0,1,1.727,1.727v8.117a1.725,1.725,0,0,1-1.727,1.726h-9.12v9.122a1.727,1.727,0,0,1-1.728,1.727Z" transform="translate(-5970)" fill="#176DE2"/>
</svg>
