<svg xmlns="http://www.w3.org/2000/svg" width="108.939" height="103.962" viewBox="0 0 108.939 103.962">
  <path id="profil" d="M6047.247,103.962v0a54.49,54.49,0,0,0,13.622-9.011,45.961,45.961,0,0,0-15.765-13.1,45.576,45.576,0,0,0-20.619-4.9,46,46,0,0,0-10.781,1.277,45.618,45.618,0,0,0-18.506,9.318,46.1,46.1,0,0,0-7.128,7.445,54.623,54.623,0,0,1-13.194-17.966,54.162,54.162,0,0,1-3.611-10.838A54.8,54.8,0,0,1,5970,54.469a54.213,54.213,0,0,1,9.3-30.454,54.631,54.631,0,0,1,23.965-19.734A54.4,54.4,0,0,1,6054.924,9.3a54.625,54.625,0,0,1,19.735,23.965,54.562,54.562,0,0,1-4.845,51.391,54.7,54.7,0,0,1-22.567,19.3ZM6024.47,22.269a23.97,23.97,0,0,0-9.489,1.939,24.28,24.28,0,0,0-7.749,5.289,24.855,24.855,0,0,0,0,34.9,24.281,24.281,0,0,0,7.749,5.289,24.181,24.181,0,0,0,18.977,0,24.288,24.288,0,0,0,7.748-5.289,24.857,24.857,0,0,0,0-34.9,24.287,24.287,0,0,0-7.748-5.289A23.967,23.967,0,0,0,6024.47,22.269Z" transform="translate(-5970)" fill="#176de2"/>
</svg>
