<svg width="0" height="0" class="hidden">
  <symbol xmlns="http://www.w3.org/2000/svg" viewBox="0 0 105.468 106.995" id="star">
    <path id="star" d="M6035.733,105a51.756,51.756,0,0,1-20.526-4.2,52.515,52.515,0,0,1-16.762-11.465,54.161,54.161,0,0,1-11.3-58.653,53.364,53.364,0,0,1,11.3-17,52.516,52.516,0,0,1,16.762-11.465,52.212,52.212,0,0,1,41.053,0,52.515,52.515,0,0,1,16.762,11.465,54.159,54.159,0,0,1,11.3,58.652,53.371,53.371,0,0,1-11.3,17.005,52.515,52.515,0,0,1-16.762,11.465A51.761,51.761,0,0,1,6035.733,105Zm0-86.791a.979.979,0,0,0-.937.651l-8.572,23a1,1,0,0,1-.913.651l-25.6.62a1,1,0,0,0-.562,1.809l20.239,14.709a1,1,0,0,1,.367,1.108L6012.476,84a.97.97,0,0,0,.143.884,1.015,1.015,0,0,0,.813.418.984.984,0,0,0,.546-.167l21.208-13.842a1,1,0,0,1,1.094,0l21.208,13.842a.983.983,0,0,0,.545.167,1.015,1.015,0,0,0,.813-.418.968.968,0,0,0,.142-.884l-7.275-23.242a1,1,0,0,1,.367-1.108l20.239-14.709a1,1,0,0,0-.564-1.809l-25.6-.62a1,1,0,0,1-.913-.651l-8.572-23A.979.979,0,0,0,6035.733,18.206Z" transform="translate(-5983 1.999)" fill="#176de2"></path>
  </symbol>
</svg>