<svg xmlns="http://www.w3.org/2000/svg" width="74.56" height="78.894" viewBox="0 0 74.56 78.894">
  <path id="Tracé_27" data-name="Tracé 27" d="M1644.411-63.826h-58.3a8.145,8.145,0,0,1-5.759-2.4,8.083,8.083,0,0,1-2.369-5.735,8.18,8.18,0,0,1,4.615-7.32,7.121,7.121,0,0,0,2.077-2.912,12.3,12.3,0,0,0,1.247-4.524v-21.5a23.291,23.291,0,0,1,4.2-13.393,23.419,23.419,0,0,1,10.762-8.461l.018-.007a3.638,3.638,0,0,0,1.7-1.327,3.48,3.48,0,0,0,.635-2,9.327,9.327,0,0,1,9.316-9.316h5.419a9.327,9.327,0,0,1,9.316,9.316,3.464,3.464,0,0,0,.627,1.985l.011.015a3.628,3.628,0,0,0,1.695,1.325l.018.007a23.424,23.424,0,0,1,10.761,8.461,23.292,23.292,0,0,1,4.2,13.393v21.5a12.3,12.3,0,0,0,1.247,4.524,7.124,7.124,0,0,0,2.078,2.913,8.179,8.179,0,0,1,4.614,7.319,8.083,8.083,0,0,1-2.37,5.735A8.144,8.144,0,0,1,1644.411-63.826Zm-52.833-10.19h47.363a23.317,23.317,0,0,1-4.531-12.7v-21.5a13.174,13.174,0,0,0-8.458-12.353,13.777,13.777,0,0,1-6.407-5.032,13.6,13.6,0,0,1-2.422-6.928H1613.4a13.606,13.606,0,0,1-2.425,6.933,13.773,13.773,0,0,1-6.4,5.027,13.175,13.175,0,0,0-8.458,12.353v21.5A23.315,23.315,0,0,1,1591.578-74.015Z" transform="translate(-1577.98 142.72)"/>
</svg>
