<svg xmlns="http://www.w3.org/2000/svg" width="106.999" height="106.999"
  viewBox="0 0 106.999 106.999">
  <g id="cinema-svgrepo-com" transform="translate(-2 -2)">
    <path id="Tracé_6" data-name="Tracé 6"
      d="M40.483,27.87A14.256,14.256,0,0,1,28,35.237H52.966a14.257,14.257,0,0,1-12.484-7.369"
      transform="translate(20.366 20.263)" fill="#176de2" />
    <ellipse id="Ellipse_1" data-name="Ellipse 1" cx="5.073" cy="5.58" rx="5.073" ry="5.58"
      transform="translate(43.595 35.955)" fill="#176de2" />
    <ellipse id="Ellipse_2" data-name="Ellipse 2" cx="5.073" cy="5.58" rx="5.073" ry="5.58"
      transform="translate(67.943 35.955)" fill="#176de2" />
    <path id="Tracé_7" data-name="Tracé 7"
      d="M55.5,2A53.5,53.5,0,1,0,109,55.5,53.5,53.5,0,0,0,55.5,2M80.466,55.5a3.577,3.577,0,0,1,3.567,3.567v21.4a3.577,3.577,0,0,1-3.567,3.567H39.45a3.577,3.577,0,0,1-3.567-3.567v-.892l-8.917,4.458V55.5l8.917,4.458v-.892A3.577,3.577,0,0,1,39.45,55.5h8.917A14.267,14.267,0,1,1,60.851,34.335,14.264,14.264,0,1,1,73.333,55.5h7.133"
      fill="#176de2" />
  </g>
</svg>