<svg xmlns="http://www.w3.org/2000/svg" width="105.467" height="106.998" viewBox="0 0 105.467 106.998">
  <path id="Soustraction_4" data-name="Soustraction 4" d="M6035.733,105a52.006,52.006,0,0,1-37.287-15.67,54.049,54.049,0,0,1,0-75.659,52.2,52.2,0,0,1,74.576,0,54.049,54.049,0,0,1,0,75.659A52.007,52.007,0,0,1,6035.733,105ZM5999.315,58.81a7.655,7.655,0,0,1,2.922,14.734l-.123.054,3.689,8.971a3.557,3.557,0,0,0,3.289,2.209,3.5,3.5,0,0,0,1.348-.271L6061.3,63.6l-1.1-2.678a1.658,1.658,0,0,1,.9-2.16,1.647,1.647,0,0,1,2.158.9l1.1,2.683,12.57-5.168a3.568,3.568,0,0,0,1.939-4.646l-3.689-8.971a7.657,7.657,0,1,1-5.824-14.164l-3.689-8.971a3.556,3.556,0,0,0-4.641-1.928l-12.57,5.168,1.1,2.678a1.653,1.653,0,1,1-3.057,1.258l-1.105-2.678-50.857,20.915a3.545,3.545,0,0,0-1.932,4.631l3.689,8.971.121-.049A7.614,7.614,0,0,1,5999.315,58.81Zm29.494,8.154a.522.522,0,0,1-.531-.487l-.666-8.778a.532.532,0,0,0-.4-.473l-8.555-2.071a.525.525,0,0,1-.08-1l8.146-3.354a.5.5,0,0,0,.322-.518l-.668-8.778a.528.528,0,0,1,.93-.385l5.7,6.712a.5.5,0,0,0,.389.185.552.552,0,0,0,.209-.042l8.141-3.349a.549.549,0,0,1,.2-.041.531.531,0,0,1,.459.278.508.508,0,0,1-.016.528l-4.621,7.491a.541.541,0,0,0,.045.616l5.705,6.712a.513.513,0,0,1,.078.556.519.519,0,0,1-.473.308.57.57,0,0,1-.131-.016l-8.553-2.081a.506.506,0,0,0-.121-.015.534.534,0,0,0-.455.252l-4.611,7.5A.52.52,0,0,1,6028.81,66.964Zm29.8-12.6a1.657,1.657,0,0,1-1.535-1.026l-2.176-5.3a1.652,1.652,0,0,1,.9-2.16,1.679,1.679,0,0,1,.633-.123,1.643,1.643,0,0,1,1.527,1.026l2.18,5.3a1.653,1.653,0,0,1-.9,2.16A1.632,1.632,0,0,1,6058.614,54.365Zm-5.3-12.874a1.638,1.638,0,0,1-1.525-1.029l-2.18-5.3a1.655,1.655,0,0,1,3.063-1.258l2.174,5.3a1.658,1.658,0,0,1-1.531,2.287Z" transform="translate(-5983.001 2)" fill="#176de2"/>
</svg>
