<svg xmlns="http://www.w3.org/2000/svg" width="107" height="107" viewBox="0 0 107 107">
  <g id="Ellipse_9" data-name="Ellipse 9" fill="#176de2" stroke="#176de2" stroke-width="1">
    <circle cx="53.5" cy="53.5" r="53.5" stroke="none" />
    <circle cx="53.5" cy="53.5" r="53" fill="none" />
  </g>
  <path id="learn-svgrepo-com"
    d="M76.91,49.524v7.937a2.647,2.647,0,0,1-2.646,2.646H71.619a2.647,2.647,0,0,1-2.646-2.646V49.524a2.647,2.647,0,0,1,2.646-2.646V26.932L41.993,24.562a2.593,2.593,0,0,1-2.122,1.151,2.646,2.646,0,1,1,2.365-3.783L71.831,24.3a2.658,2.658,0,0,1,2.434,2.638V46.878A2.647,2.647,0,0,1,76.91,49.524ZM39.871,43.5a10.571,10.571,0,0,1-4.241-.884L18.705,35.216v5.892a7.937,7.937,0,0,0,4.387,7.1h0a37.505,37.505,0,0,0,33.555,0h0a7.935,7.935,0,0,0,4.389-7.1V35.219L44.112,42.624A10.614,10.614,0,0,1,39.871,43.5ZM76.662,20.644,43.051,5.939a7.932,7.932,0,0,0-6.36,0L3.08,20.644a2.645,2.645,0,0,0,0,4.847L36.688,40.2a7.967,7.967,0,0,0,6.363,0L67.963,29.3l-24.97-2a5.092,5.092,0,0,1-3.122,1.061,5.291,5.291,0,0,1,0-10.583,5.219,5.219,0,0,1,3.786,1.611l28.385,2.27a5.3,5.3,0,0,1,4.633,3.823A2.642,2.642,0,0,0,76.662,20.644Z"
    transform="translate(13.864 20.809)" fill="#fff" />
</svg>