<svg xmlns="http://www.w3.org/2000/svg" width="107" height="107" viewBox="0 0 107 107">
  <g id="Ellipse_16" data-name="Ellipse 16" fill="#176de2" stroke="#176de2" stroke-width="1">
    <circle cx="53.5" cy="53.5" r="53.5" stroke="none" />
    <circle cx="53.5" cy="53.5" r="53" fill="none" />
  </g>
  <g id="labyrinth-maze-svgrepo-com_1_" data-name="labyrinth-maze-svgrepo-com (1)"
    transform="translate(17.25 17.25)">
    <circle id="Ellipse_17" data-name="Ellipse 17" cx="34.806" cy="34.806" r="34.806"
      transform="translate(1.444 1.444)" fill="#fff" />
    <g id="Groupe_3" data-name="Groupe 3" transform="translate(0)">
      <path id="Tracé_32" data-name="Tracé 32"
        d="M61.883,10.617A36.25,36.25,0,0,0,10.617,61.883,36.25,36.25,0,0,0,61.883,10.617ZM36.25,69.612A33.4,33.4,0,0,1,2.905,37.261H6.951a28.959,28.959,0,0,0,3.123,12.206,1.444,1.444,0,1,0,2.577-1.3,26.453,26.453,0,0,1,11.96-35.648,1.444,1.444,0,1,0-1.274-2.592A29.315,29.315,0,0,0,6.993,34.373H2.942A33.352,33.352,0,0,1,50.859,6.262L48.791,9.74A29.284,29.284,0,0,0,36.25,6.932a1.444,1.444,0,0,0,0,2.889,26.36,26.36,0,0,1,20.405,9.631,1.444,1.444,0,1,0,2.229-1.837,29.4,29.4,0,0,0-7.546-6.508L53.4,7.643A33.355,33.355,0,0,1,36.25,69.612Z"
        transform="translate(0)" fill="#176de2" />
      <path id="Tracé_33" data-name="Tracé 33"
        d="M420.752,157.357a1.444,1.444,0,1,0,2.621-1.213c-.213-.459-.44-.919-.677-1.367a1.444,1.444,0,0,0-2.554,1.349C420.355,156.529,420.56,156.944,420.752,157.357Z"
        transform="translate(-360.505 -132.199)" fill="#176de2" />
      <path id="Tracé_34" data-name="Tracé 34"
        d="M148.171,134.12a1.444,1.444,0,0,0-1.444,1.444c0,.4-.01.789-.028,1.18l-4.027-.491q.011-.344.01-.689a22.384,22.384,0,0,0-11.732-19.692,1.444,1.444,0,0,0-1.377,2.539,19.5,19.5,0,0,1,1.748,33.236,1.444,1.444,0,1,0,1.635,2.381,22.4,22.4,0,0,0,9.438-14.9l4.02.49A26.452,26.452,0,0,1,113.3,161.057l1.366-3.824a22.354,22.354,0,0,0,5.628.717,1.444,1.444,0,1,0,0-2.888,19.519,19.519,0,0,1-19.5-19.5,1.444,1.444,0,0,0-2.888,0,22.42,22.42,0,0,0,14.015,20.761l-1.363,3.818a26.312,26.312,0,0,1-4.78-2.487,1.444,1.444,0,1,0-1.588,2.413,29.322,29.322,0,0,0,45.42-24.5A1.444,1.444,0,0,0,148.171,134.12Z"
        transform="translate(-84.048 -99.314)" fill="#176de2" />
      <path id="Tracé_35" data-name="Tracé 35"
        d="M241.127,234.36c.19,0,.381-.13.381-.27V233.8a2.129,2.129,0,0,0,1.974-2.184c0-1.352-1.062-1.823-1.974-2.164v-1.463c.651.05.842.371,1.172.371.441,0,.621-.551.621-.821,0-.691-1.172-.851-1.793-.872v-.25c0-.14-.19-.27-.381-.27-.22,0-.381.13-.381.27v.281a2.049,2.049,0,0,0-2,2.034c0,1.282,1.082,1.713,2,2.064v1.623c-.741-.13-1.082-.721-1.5-.721-.381,0-.681.5-.681.842,0,.641.982,1.262,2.184,1.3v.25C240.746,234.229,240.906,234.36,241.127,234.36Zm.281-3.3c.361.17.611.381.611.711,0,.361-.27.551-.611.631v-1.342Zm-1.2-2.484c0-.24.19-.471.641-.561v1.192C240.465,229.05,240.2,228.87,240.2,228.579Z"
        transform="translate(-204.781 -194.122)" fill="#176de2" />
      <path id="Tracé_36" data-name="Tracé 36"
        d="M113.376,112.5a1.443,1.443,0,0,0,1.929-.672,19.464,19.464,0,0,1,5.885-7.114l2.444,3.385a15.306,15.306,0,1,0,24.545,12.2,1.444,1.444,0,0,0-1.444-1.444h-5.027a8.955,8.955,0,1,0-8.838,10.4,1.444,1.444,0,1,0,0-2.888,6.066,6.066,0,1,1,6.066-6.066,1.444,1.444,0,0,0,1.444,1.444h4.827a12.421,12.421,0,1,1-12.337-13.864,1.444,1.444,0,0,0,0-2.888,15.215,15.215,0,0,0-6.775,1.584l-2.469-3.419a19.454,19.454,0,0,1,9.244-2.353,1.444,1.444,0,0,0,0-2.888A22.387,22.387,0,0,0,112.7,110.57,1.444,1.444,0,0,0,113.376,112.5Z"
        transform="translate(-96.621 -84.048)" fill="#176de2" />
    </g>
  </g>
</svg>