<svg xmlns="http://www.w3.org/2000/svg" width="107" height="107" viewBox="0 0 107 107">
  <g id="Ellipse_11" data-name="Ellipse 11" fill="#176de2" stroke="#176de2" stroke-width="1">
    <circle cx="53.5" cy="53.5" r="53.5" stroke="none" />
    <circle cx="53.5" cy="53.5" r="53" fill="none" />
  </g>
  <g id="laser-gun-svgrepo-com" transform="translate(11.93 14.359)">
    <path id="Tracé_8" data-name="Tracé 8"
      d="M12.71,26.878a11.754,11.754,0,0,0-4.346-2.7,10.392,10.392,0,0,1-3.536-1.255c-.135-.256-.216-.891.162-1.147a25.641,25.641,0,0,1,10.8-6.073c6.883-1.889,9.865-1.511,10.675-1.255a14.453,14.453,0,0,1,1.984.877s2.942-3,11.377-3.036,12.24,3.63,12.24,3.63,5.142-3.792,5.668-4.062a1.552,1.552,0,0,1,2.024.378A33.55,33.55,0,0,1,60.9,18.146a14.845,14.845,0,0,0,2.4-.216c0-.121-.8-5.4-.459-5.52s4.764.337,4.8.8a20.54,20.54,0,0,0,.162,2.321A7.773,7.773,0,0,0,68.15,17l2.537-.162A3.374,3.374,0,0,1,73.926,13.8c3-.337,4.9,2.186,4.426,5.182s-3.576,2.7-4.292,2.5a2.78,2.78,0,0,1-1.107-.594l-2.213,2.038a30.056,30.056,0,0,0,1.646,2.537c.54.675.972.8.877,1.174s-2.7,4.9-3.2,4.723a15.817,15.817,0,0,1-2.821-3.833c-.769-1.35-1.269-2.362-1.269-2.362l-1.822,1.687a38.529,38.529,0,0,0,2.456,5.4c1.431,2.551,1.916,2.821,1.592,3.225s-6.235.418-7.665.472-2.7,0-2.7,0-.756,3.374-5.736,5.83a21.3,21.3,0,0,1-8.475,2.443s-.675,6.491-2.321,7.584-5.871,1.066-5.871,1.066A70.393,70.393,0,0,0,35.531,60c.243,3,1.012,5.061-1.35,6.032s-10.513.58-12.875.283-5.142-1.822-4.723-4.251S21.82,45.11,21.82,45.11A36.869,36.869,0,0,1,11.1,40.724C7.015,37.877,7.8,32.181,12.71,26.878Z"
      transform="translate(0 0)" fill="#fff" />
    <g id="Groupe_2" data-name="Groupe 2" transform="translate(21.86 16.041)">
      <path id="Tracé_18" data-name="Tracé 18"
        d="M23.644,38.891c-.108-.094.337-.891.5-.81s1.444,1.053,1.35,1.484-.256.8-.391.756S23.9,39.094,23.644,38.891Z"
        transform="translate(-15.25 -6.799)" fill="#fff" />
      <path id="Tracé_19" data-name="Tracé 19"
        d="M22.641,42.006c0-.324,2.982,2.7,2.982,2.875s.216,1.633,0,1.592a27.423,27.423,0,0,1-3.279-3.036c-.216-.27.3-1.228.3-1.431Z"
        transform="translate(-15.718 -5.433)" fill="#fff" />
      <path id="Tracé_20" data-name="Tracé 20"
        d="M18.608,21.36a45.492,45.492,0,0,1,2.443,4.912c-.135.256-.634.715-.85.459a39.3,39.3,0,0,1-2.78-4.885,2.132,2.132,0,0,1,1.188-.486Z"
        transform="translate(-17.42 -12.642)" fill="#fff" />
      <path id="Tracé_21" data-name="Tracé 21"
        d="M19.86,19.854c0-.148.972-.594,1.215-.553a38.556,38.556,0,0,1,3.374,6.667.985.985,0,0,1-.958.594C23.315,26.467,19.86,20.056,19.86,19.854Z"
        transform="translate(-16.567 -13.362)" fill="#fff" />
      <path id="Tracé_22" data-name="Tracé 22"
        d="M22.732,18a2.062,2.062,0,0,1,1.525-.5,32.659,32.659,0,0,1,3.158,6.289c-.081.283-1.134.8-1.431.5S22.57,18.471,22.732,18Z"
        transform="translate(-15.566 -14.003)" fill="#fff" />
      <path id="Tracé_23" data-name="Tracé 23"
        d="M26,17.908c.256-.162.972-.54,1.147-.378a27.611,27.611,0,0,1,1.957,4.7c-.135.3-.931.8-1.188.594S26,17.908,26,17.908Z"
        transform="translate(-14.421 -13.994)" fill="#fff" />
      <path id="Tracé_24" data-name="Tracé 24"
        d="M32.485,14.9a11.174,11.174,0,0,1,4.13.756c1.9.594,2.794,1.134,2.834,1.431s-.3,1.35-.472,1.35a30.689,30.689,0,0,0-3.374-1.35c-1.511-.418-3.036-.337-3.239-.594S32.188,15.035,32.485,14.9Z"
        transform="translate(-12.242 -14.9)" fill="#fff" />
    </g>
  </g>
</svg>