<svg xmlns="http://www.w3.org/2000/svg" width="107" height="107" viewBox="0 0 107 107">
  <g id="Ellipse_14" data-name="Ellipse 14" fill="#176de2" stroke="#176de2" stroke-width="1">
    <circle cx="53.5" cy="53.5" r="53.5" stroke="none" />
    <circle cx="53.5" cy="53.5" r="53" fill="none" />
  </g>
  <path id="path11774"
    d="M7.232,0l-4.7,25.862c-.688,3.785,8.377,5.553,8.229,9.4L9.583,65.832c-.181,4.7,4.7,4.7,4.7,4.7s4.883,0,4.7-4.7L17.812,35.267c-.148-3.845,8.151-5.552,8.229-9.4L21.338,0H18.987l1.176,18.809L16.636,21.16,15.461,0H13.109L11.934,21.16,8.407,18.809,9.583,0ZM47.2,0c-3.463,0-9.236,3.08-11.545,7.7-1.924,3.463-2.562,11.2-2.562,15.815V35.267c0,3.847,5.13,4.7,7.053,4.7L37.8,65.832c-.426,4.683,4.7,4.7,4.7,4.7s4.7,0,4.7-4.7Z"
    transform="translate(28.654 18.233)" fill="#fff" />
</svg>