<svg xmlns="http://www.w3.org/2000/svg" width="107" height="107" viewBox="0 0 107 107">
  <g id="Ellipse_13" data-name="Ellipse 13" fill="#176de2" stroke="#176de2" stroke-width="1">
    <circle cx="53.5" cy="53.5" r="53.5" stroke="none" />
    <circle cx="53.5" cy="53.5" r="53" fill="none" />
  </g>
  <g id="sport-shoe-svgrepo-com" transform="translate(18.894 -63.612)">
    <path id="Tracé_27" data-name="Tracé 27"
      d="M71.239,282.671l-.357-.525-.3.561c-1.927,3.661-8.333,5.849-13.413,5.849-6.469,0-38.407-.972-42.564-1.209-.822-.049-1.68-.071-2.7-.071-.634,0-1.222.008-1.791.015-.494.007-.961.013-1.4.013a10.331,10.331,0,0,1-3.312-.633,4.687,4.687,0,0,0-1.3-.31.869.869,0,0,0-.646.246,1.388,1.388,0,0,0-.3,1.042c.064,4.3,2.343,4.637,5.555,4.637.441,0,.911-.006,1.409-.013.566-.008,1.152-.015,1.781-.015,1.006,0,1.85.022,2.658.07,4.163.237,36.133,1.21,42.609,1.21a21.98,21.98,0,0,0,9.719-2.334c3.221-1.682,4.995-3.946,4.995-6.374A3.767,3.767,0,0,0,71.239,282.671Z"
      transform="translate(-2.678 -156.652)" fill="#fff" />
    <path id="Tracé_28" data-name="Tracé 28"
      d="M5.608,128.585c.438,0,.9-.006,1.4-.013.562-.008,1.143-.015,1.767-.015,1,0,1.838.022,2.637.07,4.13.237,35.852,1.21,42.278,1.21a21.674,21.674,0,0,0,9.646-2.335c3.2-1.682,4.956-3.946,4.956-6.373,0-3.521-4.017-4.658-8.27-5.862a34.073,34.073,0,0,1-6.743-2.421c-.913-.49-2.3-1.2-4-2.05,0-.049.007-.1.007-.147a2.625,2.625,0,0,0-4.334-2l-1.884-.925a2.622,2.622,0,0,0-4.153-2.026l-1.723-.837A2.626,2.626,0,0,0,32.72,102.7c-5.6-2.706-10.2-4.9-10.609-5.1a1.439,1.439,0,0,0-.811-.261,1.464,1.464,0,0,0-1.164.589l-3.1,4.151a2.185,2.185,0,0,0-.484,1.683c.185,1.1,1.32,1.88,2.232,2.506a4.428,4.428,0,0,1,.99.8l0,0a7.176,7.176,0,0,1-4.517,1.227,12.478,12.478,0,0,1-4.216-.765c-1.682-.612-2.377-2.293-2.936-3.643-.467-1.129-.87-2.1-1.767-2.1-.68,0-1.467.61-2.635,2.045-3.97,5.046-3.784,12.756-3.649,18.385.014.6.028,1.182.037,1.732C.156,128.252,2.418,128.585,5.608,128.585ZM38.88,112.943a1.248,1.248,0,0,1,1.139-.316c.548.164,1.843.513,2.635.71.678.168.066.7.066.7l-10.287,9.415a1.693,1.693,0,0,1-1.061.388c-1.025,0-3.012-.008-3.821-.008-.673,0-.115-.568-.115-.568S38.879,112.943,38.88,112.943Zm-7.832-2.222a1.9,1.9,0,0,1,1.747-.481c.483.153,1.616.434,2.339.637.618.173-.037.811-.038.811L22.363,123.231a1.423,1.423,0,0,1-1.3.539c-1.12,0-3.257.051-4.131.051-.494,0-.055-.532-.055-.531Z"
      transform="translate(0)" fill="#fff" />
  </g>
</svg>