<svg xmlns="http://www.w3.org/2000/svg" width="107" height="107" viewBox="0 0 107 107">
  <g id="Ellipse_12" data-name="Ellipse 12" fill="#176de2" stroke="#176de2" stroke-width="1">
    <circle cx="53.5" cy="53.5" r="53.5" stroke="none" />
    <circle cx="53.5" cy="53.5" r="53" fill="none" />
  </g>
  <path id="game-svgrepo-com"
    d="M71.11,35.686h0L66.164,14.132A11.658,11.658,0,0,0,45.7,10.7h-18.9A11.66,11.66,0,0,0,6.327,14.132L1.376,35.684h0a14.086,14.086,0,0,0,27,7.911H44.115a14.084,14.084,0,0,0,27-7.909ZM22.147,29.5H19.8v2.35a2.35,2.35,0,1,1-4.7,0V29.5h-2.35a2.35,2.35,0,0,1,0-4.7H15.1v-2.35a2.35,2.35,0,0,1,4.7,0V24.8h2.35a2.35,2.35,0,0,1,0,4.7Zm30.546,2.35a2.35,2.35,0,1,1,2.35-2.35A2.351,2.351,0,0,1,52.693,31.847Zm0-7.049a2.35,2.35,0,1,1,2.35-2.35A2.351,2.351,0,0,1,52.693,24.8Zm7.049,7.049a2.35,2.35,0,1,1,2.35-2.35A2.351,2.351,0,0,1,59.742,31.847Zm0-7.049a2.35,2.35,0,1,1,2.35-2.35A2.351,2.351,0,0,1,59.742,24.8Z"
    transform="translate(17.255 24.003)" fill="#fff" />
</svg>